<?xml version="1.0" encoding="UTF-8" standalone="no"?>
<!DOCTYPE svg PUBLIC "-//W3C//DTD SVG 1.1//EN"
 "http://www.w3.org/Graphics/SVG/1.1/DTD/svg11.dtd">
<!-- Generated by graphviz version 2.38.0 (20140413.2041)
 -->
<!-- Title: G Pages: 1 -->
<svg width="354pt" height="553pt"
 viewBox="0.00 0.00 353.50 553.00" xmlns="http://www.w3.org/2000/svg" xmlns:xlink="http://www.w3.org/1999/xlink">
<g id="graph0" class="graph" transform="scale(1 1) rotate(0) translate(4 549)">
<title>G</title>
<polygon fill="white" stroke="none" points="-4,4 -4,-549 349.5,-549 349.5,4 -4,4"/>
<!-- USER -->
<g id="node1" class="node"><title>USER</title>
<polygon fill="none" stroke="black" points="229,-498.5 229,-544.5 283,-544.5 283,-498.5 229,-498.5"/>
<text text-anchor="middle" x="256" y="-529.3" font-family="Times,serif" font-size="14.00">User</text>
<polyline fill="none" stroke="black" points="229,-521.5 283,-521.5 "/>
<text text-anchor="middle" x="256" y="-506.3" font-family="Times,serif" font-size="14.00"> </text>
</g>
<!-- LOGIN -->
<g id="node2" class="node"><title>LOGIN</title>
<polygon fill="none" stroke="black" points="202,-415.5 202,-461.5 256,-461.5 256,-415.5 202,-415.5"/>
<text text-anchor="middle" x="229" y="-446.3" font-family="Times,serif" font-size="14.00">Login</text>
<polyline fill="none" stroke="black" points="202,-438.5 256,-438.5 "/>
<text text-anchor="middle" x="229" y="-423.3" font-family="Times,serif" font-size="14.00"> </text>
</g>
<!-- USER&#45;&gt;LOGIN -->
<g id="edge16" class="edge"><title>USER&#45;&gt;LOGIN</title>
<path fill="none" stroke="black" d="M248.622,-498.366C244.812,-486.937 240.177,-473.032 236.369,-461.607"/>
<text text-anchor="middle" x="232.869" y="-465.407" font-family="Times,serif" font-size="14.00">n</text>
<text text-anchor="middle" x="245.122" y="-487.166" font-family="Times,serif" font-size="14.00">1</text>
</g>
<!-- TEAM_ROLE -->
<g id="node3" class="node"><title>TEAM_ROLE</title>
<polygon fill="none" stroke="black" points="249,-249.5 249,-295.5 323,-295.5 323,-249.5 249,-249.5"/>
<text text-anchor="middle" x="286" y="-280.3" font-family="Times,serif" font-size="14.00">TeamRole</text>
<polyline fill="none" stroke="black" points="249,-272.5 323,-272.5 "/>
<text text-anchor="middle" x="286" y="-257.3" font-family="Times,serif" font-size="14.00"> </text>
</g>
<!-- USER&#45;&gt;TEAM_ROLE -->
<g id="edge1" class="edge"><title>USER&#45;&gt;TEAM_ROLE</title>
<path fill="none" stroke="black" d="M259.637,-498.308C261.37,-487.388 263.407,-474.02 265,-462 272.962,-401.938 280.327,-330.836 283.84,-295.592"/>
<text text-anchor="middle" x="280.34" y="-299.392" font-family="Times,serif" font-size="14.00">n</text>
<text text-anchor="middle" x="256.137" y="-487.108" font-family="Times,serif" font-size="14.00">1</text>
</g>
<!-- WORKITEM -->
<g id="node4" class="node"><title>WORKITEM</title>
<polygon fill="none" stroke="black" points="94,-332.5 94,-378.5 168,-378.5 168,-332.5 94,-332.5"/>
<text text-anchor="middle" x="131" y="-363.3" font-family="Times,serif" font-size="14.00">WorkItem</text>
<polyline fill="none" stroke="black" points="94,-355.5 168,-355.5 "/>
<text text-anchor="middle" x="131" y="-340.3" font-family="Times,serif" font-size="14.00"> </text>
</g>
<!-- LOGIN&#45;&gt;WORKITEM -->
<g id="edge19" class="edge"><title>LOGIN&#45;&gt;WORKITEM</title>
<path fill="none" stroke="black" d="M202.221,-415.366C188.393,-403.937 171.57,-390.032 157.747,-378.607"/>
<text text-anchor="middle" x="163.747" y="-382.407" font-family="Times,serif" font-size="14.00">m</text>
<text text-anchor="middle" x="198.721" y="-404.166" font-family="Times,serif" font-size="14.00">n</text>
</g>
<!-- TEAM -->
<g id="node5" class="node"><title>TEAM</title>
<polygon fill="none" stroke="black" points="257,-166.5 257,-212.5 311,-212.5 311,-166.5 257,-166.5"/>
<text text-anchor="middle" x="284" y="-197.3" font-family="Times,serif" font-size="14.00">Team</text>
<polyline fill="none" stroke="black" points="257,-189.5 311,-189.5 "/>
<text text-anchor="middle" x="284" y="-174.3" font-family="Times,serif" font-size="14.00"> </text>
</g>
<!-- TEAM_ROLE&#45;&gt;TEAM -->
<g id="edge2" class="edge"><title>TEAM_ROLE&#45;&gt;TEAM</title>
<path fill="none" stroke="black" d="M285.453,-249.366C285.171,-237.937 284.828,-224.032 284.546,-212.607"/>
<text text-anchor="middle" x="281.046" y="-216.407" font-family="Times,serif" font-size="14.00">n</text>
<text text-anchor="middle" x="281.953" y="-238.166" font-family="Times,serif" font-size="14.00">1</text>
</g>
<!-- PERMISSION -->
<g id="node6" class="node"><title>PERMISSION</title>
<polygon fill="none" stroke="black" points="161.5,-166.5 161.5,-212.5 238.5,-212.5 238.5,-166.5 161.5,-166.5"/>
<text text-anchor="middle" x="200" y="-197.3" font-family="Times,serif" font-size="14.00">Permission</text>
<polyline fill="none" stroke="black" points="161.5,-189.5 238.5,-189.5 "/>
<text text-anchor="middle" x="200" y="-174.3" font-family="Times,serif" font-size="14.00"> </text>
</g>
<!-- TEAM_ROLE&#45;&gt;PERMISSION -->
<g id="edge17" class="edge"><title>TEAM_ROLE&#45;&gt;PERMISSION</title>
<path fill="none" stroke="black" d="M262.5,-249.366C250.365,-237.937 235.602,-224.032 223.471,-212.607"/>
<text text-anchor="middle" x="217.471" y="-216.407" font-family="Times,serif" font-size="14.00">m</text>
<text text-anchor="middle" x="259" y="-238.166" font-family="Times,serif" font-size="14.00">n</text>
</g>
<!-- AREA -->
<g id="node14" class="node"><title>AREA</title>
<polygon fill="none" stroke="black" points="159,-249.5 159,-295.5 213,-295.5 213,-249.5 159,-249.5"/>
<text text-anchor="middle" x="186" y="-280.3" font-family="Times,serif" font-size="14.00">Area</text>
<polyline fill="none" stroke="black" points="159,-272.5 213,-272.5 "/>
<text text-anchor="middle" x="186" y="-257.3" font-family="Times,serif" font-size="14.00"> </text>
</g>
<!-- WORKITEM&#45;&gt;AREA -->
<g id="edge14" class="edge"><title>WORKITEM&#45;&gt;AREA</title>
<path fill="none" stroke="black" d="M146.029,-332.366C153.79,-320.937 163.231,-307.032 170.989,-295.607"/>
<text text-anchor="middle" x="167.489" y="-299.407" font-family="Times,serif" font-size="14.00">n</text>
<text text-anchor="middle" x="142.529" y="-321.166" font-family="Times,serif" font-size="14.00">1</text>
</g>
<!-- ITERATION -->
<g id="node15" class="node"><title>ITERATION</title>
<polygon fill="none" stroke="black" points="23,-249.5 23,-295.5 85,-295.5 85,-249.5 23,-249.5"/>
<text text-anchor="middle" x="54" y="-280.3" font-family="Times,serif" font-size="14.00">Iteration</text>
<polyline fill="none" stroke="black" points="23,-272.5 85,-272.5 "/>
<text text-anchor="middle" x="54" y="-257.3" font-family="Times,serif" font-size="14.00"> </text>
</g>
<!-- WORKITEM&#45;&gt;ITERATION -->
<g id="edge15" class="edge"><title>WORKITEM&#45;&gt;ITERATION</title>
<path fill="none" stroke="black" d="M109.959,-332.366C99.0946,-320.937 85.8763,-307.032 75.0151,-295.607"/>
<text text-anchor="middle" x="71.5151" y="-299.407" font-family="Times,serif" font-size="14.00">n</text>
<text text-anchor="middle" x="106.459" y="-321.166" font-family="Times,serif" font-size="14.00">1</text>
</g>
<!-- PROJECT -->
<g id="node7" class="node"><title>PROJECT</title>
<polygon fill="none" stroke="black" points="172.5,-83.5 172.5,-129.5 227.5,-129.5 227.5,-83.5 172.5,-83.5"/>
<text text-anchor="middle" x="200" y="-114.3" font-family="Times,serif" font-size="14.00">Project</text>
<polyline fill="none" stroke="black" points="172.5,-106.5 227.5,-106.5 "/>
<text text-anchor="middle" x="200" y="-91.3" font-family="Times,serif" font-size="14.00"> </text>
</g>
<!-- TEAM&#45;&gt;PROJECT -->
<g id="edge3" class="edge"><title>TEAM&#45;&gt;PROJECT</title>
<path fill="none" stroke="black" d="M261.047,-166.366C249.194,-154.937 234.774,-141.032 222.926,-129.607"/>
<text text-anchor="middle" x="226.426" y="-133.407" font-family="Times,serif" font-size="14.00">n</text>
<text text-anchor="middle" x="257.547" y="-155.166" font-family="Times,serif" font-size="14.00">1</text>
</g>
<!-- ORGANIZATION -->
<g id="node13" class="node"><title>ORGANIZATION</title>
<polygon fill="none" stroke="black" points="240.5,-0.5 240.5,-46.5 327.5,-46.5 327.5,-0.5 240.5,-0.5"/>
<text text-anchor="middle" x="284" y="-31.3" font-family="Times,serif" font-size="14.00">Organization</text>
<polyline fill="none" stroke="black" points="240.5,-23.5 327.5,-23.5 "/>
<text text-anchor="middle" x="284" y="-8.3" font-family="Times,serif" font-size="14.00"> </text>
</g>
<!-- TEAM&#45;&gt;ORGANIZATION -->
<g id="edge12" class="edge"><title>TEAM&#45;&gt;ORGANIZATION</title>
<path fill="none" stroke="black" d="M284,-166.382C284,-134.994 284,-77.8678 284,-46.5286"/>
<text text-anchor="middle" x="280.5" y="-50.3286" font-family="Times,serif" font-size="14.00">n</text>
<text text-anchor="middle" x="280.5" y="-155.182" font-family="Times,serif" font-size="14.00">1</text>
</g>
<!-- PERMISSION&#45;&gt;PROJECT -->
<g id="edge18" class="edge"><title>PERMISSION&#45;&gt;PROJECT</title>
<path fill="none" stroke="black" d="M200,-166.366C200,-154.937 200,-141.032 200,-129.607"/>
<text text-anchor="middle" x="194" y="-133.407" font-family="Times,serif" font-size="14.00">m</text>
<text text-anchor="middle" x="196.5" y="-155.166" font-family="Times,serif" font-size="14.00">n</text>
</g>
<!-- PROJECT&#45;&gt;WORKITEM -->
<g id="edge4" class="edge"><title>PROJECT&#45;&gt;WORKITEM</title>
<path fill="none" stroke="black" d="M176.7,-129.611C167.442,-139.78 157.666,-152.563 152,-166 128.268,-222.283 127.903,-295.973 129.501,-332.292"/>
<text text-anchor="middle" x="126.001" y="-321.092" font-family="Times,serif" font-size="14.00">n</text>
<text text-anchor="middle" x="173.2" y="-133.411" font-family="Times,serif" font-size="14.00">1</text>
</g>
<!-- REPOSITORY -->
<g id="node12" class="node"><title>REPOSITORY</title>
<polygon fill="none" stroke="black" points="146,-0.5 146,-46.5 222,-46.5 222,-0.5 146,-0.5"/>
<text text-anchor="middle" x="184" y="-31.3" font-family="Times,serif" font-size="14.00">Repository</text>
<polyline fill="none" stroke="black" points="146,-23.5 222,-23.5 "/>
<text text-anchor="middle" x="184" y="-8.3" font-family="Times,serif" font-size="14.00"> </text>
</g>
<!-- PROJECT&#45;&gt;REPOSITORY -->
<g id="edge5" class="edge"><title>PROJECT&#45;&gt;REPOSITORY</title>
<path fill="none" stroke="black" d="M195.628,-83.3664C193.37,-71.9372 190.624,-58.0322 188.367,-46.6068"/>
<text text-anchor="middle" x="184.867" y="-50.4068" font-family="Times,serif" font-size="14.00">n</text>
<text text-anchor="middle" x="192.128" y="-72.1664" font-family="Times,serif" font-size="14.00">1</text>
</g>
<!-- PROJECT&#45;&gt;ORGANIZATION -->
<g id="edge13" class="edge"><title>PROJECT&#45;&gt;ORGANIZATION</title>
<path fill="none" stroke="black" d="M222.953,-83.3664C234.806,-71.9372 249.226,-58.0322 261.074,-46.6068"/>
<text text-anchor="middle" x="264.574" y="-50.4068" font-family="Times,serif" font-size="14.00">n</text>
<text text-anchor="middle" x="219.453" y="-72.1664" font-family="Times,serif" font-size="14.00">1</text>
</g>
<!-- WORKITEM_TYPE -->
<g id="node8" class="node"><title>WORKITEM_TYPE</title>
<polygon fill="none" stroke="black" points="80.5,-415.5 80.5,-461.5 181.5,-461.5 181.5,-415.5 80.5,-415.5"/>
<text text-anchor="middle" x="131" y="-446.3" font-family="Times,serif" font-size="14.00">WorkItemType</text>
<polyline fill="none" stroke="black" points="80.5,-438.5 181.5,-438.5 "/>
<text text-anchor="middle" x="131" y="-423.3" font-family="Times,serif" font-size="14.00"> </text>
</g>
<!-- WORKITEM_TYPE&#45;&gt;WORKITEM -->
<g id="edge6" class="edge"><title>WORKITEM_TYPE&#45;&gt;WORKITEM</title>
<path fill="none" stroke="black" d="M131,-415.366C131,-403.937 131,-390.032 131,-378.607"/>
<text text-anchor="middle" x="127.5" y="-382.407" font-family="Times,serif" font-size="14.00">n</text>
<text text-anchor="middle" x="127.5" y="-404.166" font-family="Times,serif" font-size="14.00">1</text>
</g>
<!-- CATEGORY -->
<g id="node9" class="node"><title>CATEGORY</title>
<polygon fill="none" stroke="black" points="98,-498.5 98,-544.5 164,-544.5 164,-498.5 98,-498.5"/>
<text text-anchor="middle" x="131" y="-529.3" font-family="Times,serif" font-size="14.00">Category</text>
<polyline fill="none" stroke="black" points="98,-521.5 164,-521.5 "/>
<text text-anchor="middle" x="131" y="-506.3" font-family="Times,serif" font-size="14.00"> </text>
</g>
<!-- CATEGORY&#45;&gt;WORKITEM_TYPE -->
<g id="edge8" class="edge"><title>CATEGORY&#45;&gt;WORKITEM_TYPE</title>
<path fill="none" stroke="black" d="M131,-498.366C131,-486.937 131,-473.032 131,-461.607"/>
<text text-anchor="middle" x="127.5" y="-465.407" font-family="Times,serif" font-size="14.00">n</text>
<text text-anchor="middle" x="127.5" y="-487.166" font-family="Times,serif" font-size="14.00">1</text>
</g>
<!-- LINK -->
<g id="node10" class="node"><title>LINK</title>
<polygon fill="none" stroke="black" points="8,-415.5 8,-461.5 62,-461.5 62,-415.5 8,-415.5"/>
<text text-anchor="middle" x="35" y="-446.3" font-family="Times,serif" font-size="14.00">Link</text>
<polyline fill="none" stroke="black" points="8,-438.5 62,-438.5 "/>
<text text-anchor="middle" x="35" y="-423.3" font-family="Times,serif" font-size="14.00"> </text>
</g>
<!-- LINK&#45;&gt;WORKITEM -->
<g id="edge21" class="edge"><title>LINK&#45;&gt;WORKITEM</title>
<path fill="none" stroke="black" d="M61.2324,-415.366C74.7782,-403.937 91.2581,-390.032 104.799,-378.607"/>
<text text-anchor="middle" x="101.299" y="-382.407" font-family="Times,serif" font-size="14.00">2</text>
<text text-anchor="middle" x="57.7324" y="-404.166" font-family="Times,serif" font-size="14.00">1</text>
</g>
<!-- LINK_TYPE -->
<g id="node11" class="node"><title>LINK_TYPE</title>
<polygon fill="none" stroke="black" points="0,-498.5 0,-544.5 70,-544.5 70,-498.5 0,-498.5"/>
<text text-anchor="middle" x="35" y="-529.3" font-family="Times,serif" font-size="14.00">LinkType</text>
<polyline fill="none" stroke="black" points="0,-521.5 70,-521.5 "/>
<text text-anchor="middle" x="35" y="-506.3" font-family="Times,serif" font-size="14.00"> </text>
</g>
<!-- LINK_TYPE&#45;&gt;LINK -->
<g id="edge7" class="edge"><title>LINK_TYPE&#45;&gt;LINK</title>
<path fill="none" stroke="black" d="M35,-498.366C35,-486.937 35,-473.032 35,-461.607"/>
<text text-anchor="middle" x="31.5" y="-465.407" font-family="Times,serif" font-size="14.00">n</text>
<text text-anchor="middle" x="31.5" y="-487.166" font-family="Times,serif" font-size="14.00">1</text>
</g>
<!-- ORGANIZATION&#45;&gt;ORGANIZATION -->
<g id="edge9" class="edge"><title>ORGANIZATION&#45;&gt;ORGANIZATION</title>
<path fill="none" stroke="black" d="M327.669,-38.571C337.93,-37.3322 345.5,-32.3086 345.5,-23.5 345.5,-14.6914 337.93,-9.66776 327.669,-8.42905"/>
<text text-anchor="middle" x="331.169" y="-12.229" font-family="Times,serif" font-size="14.00">n</text>
<text text-anchor="middle" x="331.169" y="-42.371" font-family="Times,serif" font-size="14.00">1</text>
</g>
<!-- AREA&#45;&gt;TEAM -->
<g id="edge20" class="edge"><title>AREA&#45;&gt;TEAM</title>
<path fill="none" stroke="black" d="M212.779,-249.366C226.607,-237.937 243.43,-224.032 257.253,-212.607"/>
<text text-anchor="middle" x="251.253" y="-216.407" font-family="Times,serif" font-size="14.00">m</text>
<text text-anchor="middle" x="209.279" y="-238.166" font-family="Times,serif" font-size="14.00">n</text>
</g>
<!-- AREA&#45;&gt;AREA -->
<g id="edge10" class="edge"><title>AREA&#45;&gt;AREA</title>
<path fill="none" stroke="black" d="M213.241,-287.86C223.024,-288.19 231,-283.07 231,-272.5 231,-261.93 223.024,-256.81 213.241,-257.14"/>
<text text-anchor="middle" x="216.741" y="-260.94" font-family="Times,serif" font-size="14.00">n</text>
<text text-anchor="middle" x="216.741" y="-291.66" font-family="Times,serif" font-size="14.00">1</text>
</g>
<!-- ITERATION&#45;&gt;ITERATION -->
<g id="edge11" class="edge"><title>ITERATION&#45;&gt;ITERATION</title>
<path fill="none" stroke="black" d="M85.102,-287.871C95.0865,-287.714 103,-282.59 103,-272.5 103,-262.41 95.0865,-257.286 85.102,-257.129"/>
<text text-anchor="middle" x="88.602" y="-260.929" font-family="Times,serif" font-size="14.00">n</text>
<text text-anchor="middle" x="88.602" y="-291.671" font-family="Times,serif" font-size="14.00">1</text>
</g>
</g>
</svg>
