<?xml version="1.0" encoding="UTF-8" standalone="no"?>
<!DOCTYPE svg PUBLIC "-//W3C//DTD SVG 1.1//EN"
 "http://www.w3.org/Graphics/SVG/1.1/DTD/svg11.dtd">
<!-- Generated by graphviz version 2.38.0 (20140413.2041)
 -->
<!-- Title: G Pages: 1 -->
<svg width="757pt" height="531pt"
 viewBox="0.00 0.00 756.79 531.00" xmlns="http://www.w3.org/2000/svg" xmlns:xlink="http://www.w3.org/1999/xlink">
<g id="graph0" class="graph" transform="scale(1 1) rotate(0) translate(4 527)">
<title>G</title>
<polygon fill="white" stroke="none" points="-4,4 -4,-527 752.79,-527 752.79,4 -4,4"/>
<!-- USER -->
<g id="node1" class="node"><title>USER</title>
<ellipse fill="none" stroke="black" cx="419.447" cy="-505" rx="33.2948" ry="18"/>
<text text-anchor="middle" x="419.447" y="-501.3" font-family="Times,serif" font-size="14.00">USER</text>
</g>
<!-- LOGIN -->
<g id="node2" class="node"><title>LOGIN</title>
<ellipse fill="none" stroke="black" cx="390.447" cy="-378" rx="38.1938" ry="18"/>
<text text-anchor="middle" x="390.447" y="-374.3" font-family="Times,serif" font-size="14.00">LOGIN</text>
</g>
<!-- USER&#45;&gt;LOGIN -->
<g id="edge1" class="edge"><title>USER&#45;&gt;LOGIN</title>
<path fill="none" stroke="black" d="M415.475,-486.881C410.616,-465.936 402.334,-430.238 396.637,-405.68"/>
<polygon fill="black" stroke="black" points="400.04,-404.862 394.37,-395.912 393.221,-406.444 400.04,-404.862"/>
</g>
<!-- TEAM_ROLE -->
<g id="node3" class="node"><title>TEAM_ROLE</title>
<ellipse fill="none" stroke="black" cx="482.447" cy="-432" rx="63.8893" ry="18"/>
<text text-anchor="middle" x="482.447" y="-428.3" font-family="Times,serif" font-size="14.00">TEAM_ROLE</text>
</g>
<!-- USER&#45;&gt;TEAM_ROLE -->
<g id="edge2" class="edge"><title>USER&#45;&gt;TEAM_ROLE</title>
<path fill="none" stroke="black" d="M433.117,-488.594C441.249,-479.429 451.746,-467.6 460.965,-457.21"/>
<polygon fill="black" stroke="black" points="463.686,-459.417 467.705,-449.614 458.45,-454.771 463.686,-459.417"/>
</g>
<!-- WORKITEM -->
<g id="node4" class="node"><title>WORKITEM</title>
<ellipse fill="none" stroke="black" cx="390.447" cy="-164" rx="59.5901" ry="18"/>
<text text-anchor="middle" x="390.447" y="-160.3" font-family="Times,serif" font-size="14.00">WORKITEM</text>
</g>
<!-- LOGIN&#45;&gt;WORKITEM -->
<g id="edge3" class="edge"><title>LOGIN&#45;&gt;WORKITEM</title>
<path fill="none" stroke="black" d="M390.447,-359.651C390.447,-322.834 390.447,-236.638 390.447,-192.342"/>
<polygon fill="black" stroke="black" points="393.947,-192.291 390.447,-182.291 386.947,-192.291 393.947,-192.291"/>
<text text-anchor="middle" x="431.447" y="-276.8" font-family="Times,serif" font-size="14.00">CUD|Assigned</text>
</g>
<!-- TEAM -->
<g id="node5" class="node"><title>TEAM</title>
<ellipse fill="none" stroke="black" cx="600.447" cy="-324" rx="36.2938" ry="18"/>
<text text-anchor="middle" x="600.447" y="-320.3" font-family="Times,serif" font-size="14.00">TEAM</text>
</g>
<!-- TEAM_ROLE&#45;&gt;TEAM -->
<g id="edge4" class="edge"><title>TEAM_ROLE&#45;&gt;TEAM</title>
<path fill="none" stroke="black" d="M500.626,-414.67C520.866,-396.488 553.679,-367.012 576.119,-346.854"/>
<polygon fill="black" stroke="black" points="578.486,-349.432 583.586,-340.146 573.808,-344.225 578.486,-349.432"/>
</g>
<!-- PERMISSION -->
<g id="node6" class="node"><title>PERMISSION</title>
<ellipse fill="none" stroke="black" cx="482.447" cy="-324" rx="63.8893" ry="18"/>
<text text-anchor="middle" x="482.447" y="-320.3" font-family="Times,serif" font-size="14.00">PERMISSION</text>
</g>
<!-- TEAM_ROLE&#45;&gt;PERMISSION -->
<g id="edge5" class="edge"><title>TEAM_ROLE&#45;&gt;PERMISSION</title>
<path fill="none" stroke="black" d="M482.447,-413.969C482.447,-397.378 482.447,-371.883 482.447,-352.431"/>
<polygon fill="black" stroke="black" points="485.947,-352.341 482.447,-342.341 478.947,-352.341 485.947,-352.341"/>
</g>
<!-- AREA -->
<g id="node10" class="node"><title>AREA</title>
<ellipse fill="none" stroke="black" cx="34.4469" cy="-91" rx="34.394" ry="18"/>
<text text-anchor="middle" x="34.4469" y="-87.3" font-family="Times,serif" font-size="14.00">AREA</text>
</g>
<!-- WORKITEM&#45;&gt;AREA -->
<g id="edge12" class="edge"><title>WORKITEM&#45;&gt;AREA</title>
<path fill="none" stroke="black" d="M341.98,-153.353C287.759,-142.558 197.307,-124.543 119.447,-109 105.335,-106.183 89.9053,-103.098 76.1119,-100.339"/>
<polygon fill="black" stroke="black" points="76.4241,-96.8323 65.9318,-98.3025 75.0509,-103.696 76.4241,-96.8323"/>
</g>
<!-- ITERATION -->
<g id="node11" class="node"><title>ITERATION</title>
<ellipse fill="none" stroke="black" cx="186.447" cy="-91" rx="57.6901" ry="18"/>
<text text-anchor="middle" x="186.447" y="-87.3" font-family="Times,serif" font-size="14.00">ITERATION</text>
</g>
<!-- WORKITEM&#45;&gt;ITERATION -->
<g id="edge13" class="edge"><title>WORKITEM&#45;&gt;ITERATION</title>
<path fill="none" stroke="black" d="M352.554,-149.812C318.851,-138.082 269.444,-120.886 233.275,-108.298"/>
<polygon fill="black" stroke="black" points="234.044,-104.86 223.449,-104.878 231.743,-111.471 234.044,-104.86"/>
</g>
<!-- WORKITEM_TYPE -->
<g id="node12" class="node"><title>WORKITEM_TYPE</title>
<ellipse fill="none" stroke="black" cx="390.447" cy="-91" rx="86.3847" ry="18"/>
<text text-anchor="middle" x="390.447" y="-87.3" font-family="Times,serif" font-size="14.00">WORKITEM_TYPE</text>
</g>
<!-- WORKITEM&#45;&gt;WORKITEM_TYPE -->
<g id="edge14" class="edge"><title>WORKITEM&#45;&gt;WORKITEM_TYPE</title>
<path fill="none" stroke="black" d="M390.447,-145.813C390.447,-137.789 390.447,-128.047 390.447,-119.069"/>
<polygon fill="black" stroke="black" points="393.947,-119.029 390.447,-109.029 386.947,-119.029 393.947,-119.029"/>
</g>
<!-- LINK -->
<g id="node13" class="node"><title>LINK</title>
<ellipse fill="none" stroke="black" cx="526.447" cy="-91" rx="31.6951" ry="18"/>
<text text-anchor="middle" x="526.447" y="-87.3" font-family="Times,serif" font-size="14.00">LINK</text>
</g>
<!-- WORKITEM&#45;&gt;LINK -->
<g id="edge15" class="edge"><title>WORKITEM&#45;&gt;LINK</title>
<path fill="none" stroke="black" d="M414.593,-147.419C436.223,-135.382 467.955,-118.829 492.179,-106.954"/>
<polygon fill="black" stroke="black" points="493.914,-110.003 501.388,-102.494 490.862,-103.703 493.914,-110.003"/>
</g>
<!-- PROJECT -->
<g id="node7" class="node"><title>PROJECT</title>
<ellipse fill="none" stroke="black" cx="522.447" cy="-237" rx="48.1917" ry="18"/>
<text text-anchor="middle" x="522.447" y="-233.3" font-family="Times,serif" font-size="14.00">PROJECT</text>
</g>
<!-- PERMISSION&#45;&gt;PROJECT -->
<g id="edge6" class="edge"><title>PERMISSION&#45;&gt;PROJECT</title>
<path fill="none" stroke="black" d="M490.542,-305.799C496.163,-293.854 503.757,-277.717 510.125,-264.183"/>
<polygon fill="black" stroke="black" points="513.41,-265.424 514.501,-254.885 507.076,-262.443 513.41,-265.424"/>
</g>
<!-- PROJECT&#45;&gt;WORKITEM -->
<g id="edge10" class="edge"><title>PROJECT&#45;&gt;WORKITEM</title>
<path fill="none" stroke="black" d="M496.052,-221.803C476.434,-211.251 449.408,-196.714 427.608,-184.988"/>
<polygon fill="black" stroke="black" points="429.086,-181.809 418.621,-180.154 425.77,-187.974 429.086,-181.809"/>
</g>
<!-- REPOSITORY -->
<g id="node9" class="node"><title>REPOSITORY</title>
<ellipse fill="none" stroke="black" cx="533.447" cy="-164" rx="64.9885" ry="18"/>
<text text-anchor="middle" x="533.447" y="-160.3" font-family="Times,serif" font-size="14.00">REPOSITORY</text>
</g>
<!-- PROJECT&#45;&gt;REPOSITORY -->
<g id="edge11" class="edge"><title>PROJECT&#45;&gt;REPOSITORY</title>
<path fill="none" stroke="black" d="M525.11,-218.813C526.353,-210.789 527.862,-201.047 529.253,-192.069"/>
<polygon fill="black" stroke="black" points="532.736,-192.447 530.809,-182.029 525.819,-191.375 532.736,-192.447"/>
</g>
<!-- ORGANIZATION -->
<g id="node8" class="node"><title>ORGANIZATION</title>
<ellipse fill="none" stroke="black" cx="653.447" cy="-432" rx="77.1866" ry="18"/>
<text text-anchor="middle" x="653.447" y="-428.3" font-family="Times,serif" font-size="14.00">ORGANIZATION</text>
</g>
<!-- ORGANIZATION&#45;&gt;TEAM -->
<g id="edge7" class="edge"><title>ORGANIZATION&#45;&gt;TEAM</title>
<path fill="none" stroke="black" d="M644.932,-413.969C636.382,-396.87 623.103,-370.312 613.277,-350.66"/>
<polygon fill="black" stroke="black" points="616.369,-349.018 608.766,-341.639 610.108,-352.149 616.369,-349.018"/>
</g>
<!-- ORGANIZATION&#45;&gt;PROJECT -->
<g id="edge8" class="edge"><title>ORGANIZATION&#45;&gt;PROJECT</title>
<path fill="none" stroke="black" d="M657.214,-413.661C661.791,-387.967 666.516,-339.246 645.447,-306 628.464,-279.2 596.999,-262.082 570.147,-251.724"/>
<polygon fill="black" stroke="black" points="571.092,-248.343 560.498,-248.208 568.695,-254.92 571.092,-248.343"/>
</g>
<!-- ORGANIZATION&#45;&gt;ORGANIZATION -->
<g id="edge9" class="edge"><title>ORGANIZATION&#45;&gt;ORGANIZATION</title>
<path fill="none" stroke="black" d="M725.787,-438.404C739.284,-437.615 748.79,-435.48 748.79,-432 748.79,-429.471 743.772,-427.653 735.851,-426.545"/>
<polygon fill="black" stroke="black" points="736.071,-423.051 725.787,-425.596 735.414,-430.02 736.071,-423.051"/>
</g>
<!-- AREA&#45;&gt;AREA -->
<g id="edge17" class="edge"><title>AREA&#45;&gt;AREA</title>
<path fill="none" stroke="black" d="M66.4545,-97.7463C77.7382,-97.8542 86.8939,-95.6055 86.8939,-91 86.8939,-87.9057 82.7609,-85.8753 76.6263,-84.9087"/>
<polygon fill="black" stroke="black" points="76.6588,-81.4036 66.4545,-84.2537 76.2089,-88.3891 76.6588,-81.4036"/>
<text text-anchor="middle" x="98.8939" y="-87.3" font-family="Times,serif" font-size="14.00">path</text>
</g>
<!-- ITERATION&#45;&gt;ITERATION -->
<g id="edge18" class="edge"><title>ITERATION&#45;&gt;ITERATION</title>
<path fill="none" stroke="black" d="M240.302,-97.6165C252.956,-97.0727 262.292,-94.8672 262.292,-91 262.292,-88.2809 257.676,-86.3833 250.537,-85.3072"/>
<polygon fill="black" stroke="black" points="250.576,-81.7966 240.302,-84.3835 249.947,-88.7682 250.576,-81.7966"/>
<text text-anchor="middle" x="274.292" y="-87.3" font-family="Times,serif" font-size="14.00">path</text>
</g>
<!-- WORKITEM_FAMILY -->
<g id="node14" class="node"><title>WORKITEM_FAMILY</title>
<ellipse fill="none" stroke="black" cx="370.447" cy="-18" rx="98.5829" ry="18"/>
<text text-anchor="middle" x="370.447" y="-14.3" font-family="Times,serif" font-size="14.00">WORKITEM_FAMILY</text>
</g>
<!-- WORKITEM_TYPE&#45;&gt;WORKITEM_FAMILY -->
<g id="edge16" class="edge"><title>WORKITEM_TYPE&#45;&gt;WORKITEM_FAMILY</title>
<path fill="none" stroke="black" d="M385.606,-72.8129C383.321,-64.7023 380.541,-54.8355 377.99,-45.7766"/>
<polygon fill="black" stroke="black" points="381.324,-44.7052 375.244,-36.0288 374.586,-46.6033 381.324,-44.7052"/>
</g>
<!-- LINK&#45;&gt;WORKITEM -->
<g id="edge19" class="edge"><title>LINK&#45;&gt;WORKITEM</title>
<path fill="none" stroke="black" d="M506.528,-105.213C487.037,-116.206 457.024,-131.986 432.336,-144.279"/>
<polygon fill="black" stroke="black" points="430.587,-141.239 423.168,-148.803 433.684,-147.517 430.587,-141.239"/>
</g>
<!-- LINK_TYPE -->
<g id="node15" class="node"><title>LINK_TYPE</title>
<ellipse fill="none" stroke="black" cx="545.447" cy="-18" rx="57.6901" ry="18"/>
<text text-anchor="middle" x="545.447" y="-14.3" font-family="Times,serif" font-size="14.00">LINK_TYPE</text>
</g>
<!-- LINK&#45;&gt;LINK_TYPE -->
<g id="edge20" class="edge"><title>LINK&#45;&gt;LINK_TYPE</title>
<path fill="none" stroke="black" d="M530.95,-73.174C533.118,-65.07 535.773,-55.1509 538.215,-46.0253"/>
<polygon fill="black" stroke="black" points="541.64,-46.7633 540.845,-36.1984 534.878,-44.9537 541.64,-46.7633"/>
</g>
</g>
</svg>
