<?xml version="1.0" encoding="UTF-8" standalone="yes"?><svg xmlns="http://www.w3.org/2000/svg" xmlns:xlink="http://www.w3.org/1999/xlink" height="613px" style="width:639px;height:613px;" version="1.1" viewBox="0 0 639 613" width="639px"><defs><filter height="300%" id="f1" width="300%" x="-1" y="-1"><feGaussianBlur result="blurOut" stdDeviation="2.0"/><feColorMatrix in="blurOut" result="blurOut2" type="matrix" values="0 0 0 0 0 0 0 0 0 0 0 0 0 0 0 0 0 0 .4 0"/><feOffset dx="4.0" dy="4.0" in="blurOut2" result="blurOut3"/><feBlend in="SourceGraphic" in2="blurOut3" mode="normal"/></filter></defs><g><rect fill="#FEFECE" filter="url(#f1)" height="32" style="stroke: #A80036; stroke-width: 1.5;" width="58" x="87" y="7.967"/><ellipse cx="102" cy="23.967" fill="#ADD1B2" rx="11" ry="11" style="stroke: #A80036; stroke-width: 1.0;"/><path d="M104.3438,19.6389 C103.4063,19.2014 102.8125,19.0607 101.9375,19.0607 C99.3125,19.0607 97.3125,21.1389 97.3125,23.8576 L97.3125,24.9826 C97.3125,27.5607 99.4219,29.4514 102.3125,29.4514 C103.5313,29.4514 104.6875,29.1545 105.4375,28.6076 C106.0156,28.2014 106.3438,27.7482 106.3438,27.3576 C106.3438,26.9045 105.9531,26.5139 105.4844,26.5139 C105.2656,26.5139 105.0625,26.592 104.875,26.7795 C104.4219,27.2639 104.4219,27.2639 104.2344,27.3576 C103.8125,27.6232 103.125,27.7482 102.3594,27.7482 C100.3125,27.7482 99.0156,26.6545 99.0156,24.9514 L99.0156,23.8576 C99.0156,22.0764 100.2656,20.7639 102,20.7639 C102.5781,20.7639 103.1875,20.9201 103.6563,21.1701 C104.1406,21.4514 104.3125,21.6701 104.4063,22.0764 C104.4688,22.4826 104.5,22.6076 104.6406,22.7326 C104.7813,22.8732 105.0156,22.9826 105.2344,22.9826 C105.5,22.9826 105.7656,22.842 105.9375,22.6232 C106.0469,22.467 106.0781,22.2795 106.0781,21.8576 L106.0781,20.4357 C106.0781,19.9982 106.0625,19.8732 105.9688,19.717 C105.8125,19.4514 105.5313,19.3107 105.2344,19.3107 C104.9375,19.3107 104.7344,19.4045 104.5156,19.717 L104.3438,19.6389 Z "/><text fill="#000000" font-family="sans-serif" font-size="12" lengthAdjust="spacingAndGlyphs" textLength="26" x="116" y="27.975">User</text><rect fill="#FEFECE" filter="url(#f1)" height="32" style="stroke: #A80036; stroke-width: 1.5;" width="63" x="110.5" y="99.967"/><ellipse cx="125.5" cy="115.967" fill="#ADD1B2" rx="11" ry="11" style="stroke: #A80036; stroke-width: 1.0;"/><path d="M127.8438,111.6389 C126.9063,111.2014 126.3125,111.0607 125.4375,111.0607 C122.8125,111.0607 120.8125,113.1389 120.8125,115.8576 L120.8125,116.9826 C120.8125,119.5607 122.9219,121.4514 125.8125,121.4514 C127.0313,121.4514 128.1875,121.1545 128.9375,120.6076 C129.5156,120.2014 129.8438,119.7482 129.8438,119.3576 C129.8438,118.9045 129.4531,118.5139 128.9844,118.5139 C128.7656,118.5139 128.5625,118.592 128.375,118.7795 C127.9219,119.2639 127.9219,119.2639 127.7344,119.3576 C127.3125,119.6232 126.625,119.7482 125.8594,119.7482 C123.8125,119.7482 122.5156,118.6545 122.5156,116.9514 L122.5156,115.8576 C122.5156,114.0764 123.7656,112.7639 125.5,112.7639 C126.0781,112.7639 126.6875,112.9201 127.1563,113.1701 C127.6406,113.4514 127.8125,113.6701 127.9063,114.0764 C127.9688,114.4826 128,114.6076 128.1406,114.7326 C128.2813,114.8732 128.5156,114.9826 128.7344,114.9826 C129,114.9826 129.2656,114.842 129.4375,114.6232 C129.5469,114.467 129.5781,114.2795 129.5781,113.8576 L129.5781,112.4357 C129.5781,111.9982 129.5625,111.8732 129.4688,111.717 C129.3125,111.4514 129.0313,111.3107 128.7344,111.3107 C128.4375,111.3107 128.2344,111.4045 128.0156,111.717 L127.8438,111.6389 Z "/><text fill="#000000" font-family="sans-serif" font-size="12" lengthAdjust="spacingAndGlyphs" textLength="31" x="139.5" y="119.975">Login</text><rect fill="#FEFECE" filter="url(#f1)" height="32" style="stroke: #A80036; stroke-width: 1.5;" width="89" x="180.5" y="7.967"/><ellipse cx="195.5" cy="23.967" fill="#ADD1B2" rx="11" ry="11" style="stroke: #A80036; stroke-width: 1.0;"/><path d="M197.8438,19.6389 C196.9063,19.2014 196.3125,19.0607 195.4375,19.0607 C192.8125,19.0607 190.8125,21.1389 190.8125,23.8576 L190.8125,24.9826 C190.8125,27.5607 192.9219,29.4514 195.8125,29.4514 C197.0313,29.4514 198.1875,29.1545 198.9375,28.6076 C199.5156,28.2014 199.8438,27.7482 199.8438,27.3576 C199.8438,26.9045 199.4531,26.5139 198.9844,26.5139 C198.7656,26.5139 198.5625,26.592 198.375,26.7795 C197.9219,27.2639 197.9219,27.2639 197.7344,27.3576 C197.3125,27.6232 196.625,27.7482 195.8594,27.7482 C193.8125,27.7482 192.5156,26.6545 192.5156,24.9514 L192.5156,23.8576 C192.5156,22.0764 193.7656,20.7639 195.5,20.7639 C196.0781,20.7639 196.6875,20.9201 197.1563,21.1701 C197.6406,21.4514 197.8125,21.6701 197.9063,22.0764 C197.9688,22.4826 198,22.6076 198.1406,22.7326 C198.2813,22.8732 198.5156,22.9826 198.7344,22.9826 C199,22.9826 199.2656,22.842 199.4375,22.6232 C199.5469,22.467 199.5781,22.2795 199.5781,21.8576 L199.5781,20.4357 C199.5781,19.9982 199.5625,19.8732 199.4688,19.717 C199.3125,19.4514 199.0313,19.3107 198.7344,19.3107 C198.4375,19.3107 198.2344,19.4045 198.0156,19.717 L197.8438,19.6389 Z "/><text fill="#000000" font-family="sans-serif" font-size="12" lengthAdjust="spacingAndGlyphs" textLength="57" x="209.5" y="27.975">TeamRole</text><rect fill="#FEFECE" filter="url(#f1)" height="32" style="stroke: #A80036; stroke-width: 1.5;" width="83" x="303.5" y="191.967"/><ellipse cx="318.5" cy="207.967" fill="#ADD1B2" rx="11" ry="11" style="stroke: #A80036; stroke-width: 1.0;"/><path d="M320.8438,203.6389 C319.9063,203.2014 319.3125,203.0607 318.4375,203.0607 C315.8125,203.0607 313.8125,205.1389 313.8125,207.8576 L313.8125,208.9826 C313.8125,211.5607 315.9219,213.4514 318.8125,213.4514 C320.0313,213.4514 321.1875,213.1545 321.9375,212.6076 C322.5156,212.2014 322.8438,211.7482 322.8438,211.3576 C322.8438,210.9045 322.4531,210.5139 321.9844,210.5139 C321.7656,210.5139 321.5625,210.592 321.375,210.7795 C320.9219,211.2639 320.9219,211.2639 320.7344,211.3576 C320.3125,211.6232 319.625,211.7482 318.8594,211.7482 C316.8125,211.7482 315.5156,210.6545 315.5156,208.9514 L315.5156,207.8576 C315.5156,206.0764 316.7656,204.7639 318.5,204.7639 C319.0781,204.7639 319.6875,204.9201 320.1563,205.1701 C320.6406,205.4514 320.8125,205.6701 320.9063,206.0764 C320.9688,206.4826 321,206.6076 321.1406,206.7326 C321.2813,206.8732 321.5156,206.9826 321.7344,206.9826 C322,206.9826 322.2656,206.842 322.4375,206.6232 C322.5469,206.467 322.5781,206.2795 322.5781,205.8576 L322.5781,204.4357 C322.5781,203.9982 322.5625,203.8732 322.4688,203.717 C322.3125,203.4514 322.0313,203.3107 321.7344,203.3107 C321.4375,203.3107 321.2344,203.4045 321.0156,203.717 L320.8438,203.6389 Z "/><text fill="#000000" font-family="sans-serif" font-size="12" lengthAdjust="spacingAndGlyphs" textLength="51" x="332.5" y="211.975">WorkItem</text><rect fill="#FEFECE" filter="url(#f1)" height="32" style="stroke: #A80036; stroke-width: 1.5;" width="63" x="26.5" y="375.967"/><ellipse cx="41.5" cy="391.967" fill="#ADD1B2" rx="11" ry="11" style="stroke: #A80036; stroke-width: 1.0;"/><path d="M43.8438,387.6389 C42.9063,387.2014 42.3125,387.0608 41.4375,387.0608 C38.8125,387.0608 36.8125,389.1389 36.8125,391.8576 L36.8125,392.9826 C36.8125,395.5608 38.9219,397.4514 41.8125,397.4514 C43.0313,397.4514 44.1875,397.1545 44.9375,396.6076 C45.5156,396.2014 45.8438,395.7483 45.8438,395.3576 C45.8438,394.9045 45.4531,394.5139 44.9844,394.5139 C44.7656,394.5139 44.5625,394.592 44.375,394.7795 C43.9219,395.2639 43.9219,395.2639 43.7344,395.3576 C43.3125,395.6233 42.625,395.7483 41.8594,395.7483 C39.8125,395.7483 38.5156,394.6545 38.5156,392.9514 L38.5156,391.8576 C38.5156,390.0764 39.7656,388.7639 41.5,388.7639 C42.0781,388.7639 42.6875,388.9201 43.1563,389.1701 C43.6406,389.4514 43.8125,389.6701 43.9063,390.0764 C43.9688,390.4826 44,390.6076 44.1406,390.7326 C44.2813,390.8733 44.5156,390.9826 44.7344,390.9826 C45,390.9826 45.2656,390.842 45.4375,390.6233 C45.5469,390.467 45.5781,390.2795 45.5781,389.8576 L45.5781,388.4358 C45.5781,387.9983 45.5625,387.8733 45.4688,387.717 C45.3125,387.4514 45.0313,387.3108 44.7344,387.3108 C44.4375,387.3108 44.2344,387.4045 44.0156,387.717 L43.8438,387.6389 Z "/><text fill="#000000" font-family="sans-serif" font-size="12" lengthAdjust="spacingAndGlyphs" textLength="31" x="55.5" y="395.975">Team</text><rect fill="#FEFECE" filter="url(#f1)" height="32" style="stroke: #A80036; stroke-width: 1.5;" width="93" x="143.5" y="191.967"/><ellipse cx="158.5" cy="207.967" fill="#ADD1B2" rx="11" ry="11" style="stroke: #A80036; stroke-width: 1.0;"/><path d="M160.8438,203.6389 C159.9063,203.2014 159.3125,203.0607 158.4375,203.0607 C155.8125,203.0607 153.8125,205.1389 153.8125,207.8576 L153.8125,208.9826 C153.8125,211.5607 155.9219,213.4514 158.8125,213.4514 C160.0313,213.4514 161.1875,213.1545 161.9375,212.6076 C162.5156,212.2014 162.8438,211.7482 162.8438,211.3576 C162.8438,210.9045 162.4531,210.5139 161.9844,210.5139 C161.7656,210.5139 161.5625,210.592 161.375,210.7795 C160.9219,211.2639 160.9219,211.2639 160.7344,211.3576 C160.3125,211.6232 159.625,211.7482 158.8594,211.7482 C156.8125,211.7482 155.5156,210.6545 155.5156,208.9514 L155.5156,207.8576 C155.5156,206.0764 156.7656,204.7639 158.5,204.7639 C159.0781,204.7639 159.6875,204.9201 160.1563,205.1701 C160.6406,205.4514 160.8125,205.6701 160.9063,206.0764 C160.9688,206.4826 161,206.6076 161.1406,206.7326 C161.2813,206.8732 161.5156,206.9826 161.7344,206.9826 C162,206.9826 162.2656,206.842 162.4375,206.6232 C162.5469,206.467 162.5781,206.2795 162.5781,205.8576 L162.5781,204.4357 C162.5781,203.9982 162.5625,203.8732 162.4688,203.717 C162.3125,203.4514 162.0313,203.3107 161.7344,203.3107 C161.4375,203.3107 161.2344,203.4045 161.0156,203.717 L160.8438,203.6389 Z "/><text fill="#000000" font-family="sans-serif" font-size="12" lengthAdjust="spacingAndGlyphs" textLength="61" x="172.5" y="211.975">Permission</text><rect fill="#FEFECE" filter="url(#f1)" height="32" style="stroke: #A80036; stroke-width: 1.5;" width="70" x="110" y="467.967"/><ellipse cx="125" cy="483.967" fill="#ADD1B2" rx="11" ry="11" style="stroke: #A80036; stroke-width: 1.0;"/><path d="M127.3438,479.6389 C126.4063,479.2014 125.8125,479.0608 124.9375,479.0608 C122.3125,479.0608 120.3125,481.1389 120.3125,483.8576 L120.3125,484.9826 C120.3125,487.5608 122.4219,489.4514 125.3125,489.4514 C126.5313,489.4514 127.6875,489.1545 128.4375,488.6076 C129.0156,488.2014 129.3438,487.7483 129.3438,487.3576 C129.3438,486.9045 128.9531,486.5139 128.4844,486.5139 C128.2656,486.5139 128.0625,486.592 127.875,486.7795 C127.4219,487.2639 127.4219,487.2639 127.2344,487.3576 C126.8125,487.6233 126.125,487.7483 125.3594,487.7483 C123.3125,487.7483 122.0156,486.6545 122.0156,484.9514 L122.0156,483.8576 C122.0156,482.0764 123.2656,480.7639 125,480.7639 C125.5781,480.7639 126.1875,480.9201 126.6563,481.1701 C127.1406,481.4514 127.3125,481.6701 127.4063,482.0764 C127.4688,482.4826 127.5,482.6076 127.6406,482.7326 C127.7813,482.8733 128.0156,482.9826 128.2344,482.9826 C128.5,482.9826 128.7656,482.842 128.9375,482.6233 C129.0469,482.467 129.0781,482.2795 129.0781,481.8576 L129.0781,480.4358 C129.0781,479.9983 129.0625,479.8733 128.9688,479.717 C128.8125,479.4514 128.5313,479.3108 128.2344,479.3108 C127.9375,479.3108 127.7344,479.4045 127.5156,479.717 L127.3438,479.6389 Z "/><text fill="#000000" font-family="sans-serif" font-size="12" lengthAdjust="spacingAndGlyphs" textLength="38" x="139" y="487.975">Project</text><rect fill="#FEFECE" filter="url(#f1)" height="32" style="stroke: #A80036; stroke-width: 1.5;" width="110" x="290" y="99.967"/><ellipse cx="305" cy="115.967" fill="#ADD1B2" rx="11" ry="11" style="stroke: #A80036; stroke-width: 1.0;"/><path d="M307.3438,111.6389 C306.4063,111.2014 305.8125,111.0607 304.9375,111.0607 C302.3125,111.0607 300.3125,113.1389 300.3125,115.8576 L300.3125,116.9826 C300.3125,119.5607 302.4219,121.4514 305.3125,121.4514 C306.5313,121.4514 307.6875,121.1545 308.4375,120.6076 C309.0156,120.2014 309.3438,119.7482 309.3438,119.3576 C309.3438,118.9045 308.9531,118.5139 308.4844,118.5139 C308.2656,118.5139 308.0625,118.592 307.875,118.7795 C307.4219,119.2639 307.4219,119.2639 307.2344,119.3576 C306.8125,119.6232 306.125,119.7482 305.3594,119.7482 C303.3125,119.7482 302.0156,118.6545 302.0156,116.9514 L302.0156,115.8576 C302.0156,114.0764 303.2656,112.7639 305,112.7639 C305.5781,112.7639 306.1875,112.9201 306.6563,113.1701 C307.1406,113.4514 307.3125,113.6701 307.4063,114.0764 C307.4688,114.4826 307.5,114.6076 307.6406,114.7326 C307.7813,114.8732 308.0156,114.9826 308.2344,114.9826 C308.5,114.9826 308.7656,114.842 308.9375,114.6232 C309.0469,114.467 309.0781,114.2795 309.0781,113.8576 L309.0781,112.4357 C309.0781,111.9982 309.0625,111.8732 308.9688,111.717 C308.8125,111.4514 308.5313,111.3107 308.2344,111.3107 C307.9375,111.3107 307.7344,111.4045 307.5156,111.717 L307.3438,111.6389 Z "/><text fill="#000000" font-family="sans-serif" font-size="12" lengthAdjust="spacingAndGlyphs" textLength="78" x="319" y="119.975">WorkItemType</text><rect fill="#FEFECE" filter="url(#f1)" height="32" style="stroke: #A80036; stroke-width: 1.5;" width="82" x="305" y="7.967"/><ellipse cx="320" cy="23.967" fill="#ADD1B2" rx="11" ry="11" style="stroke: #A80036; stroke-width: 1.0;"/><path d="M322.3438,19.6389 C321.4063,19.2014 320.8125,19.0607 319.9375,19.0607 C317.3125,19.0607 315.3125,21.1389 315.3125,23.8576 L315.3125,24.9826 C315.3125,27.5607 317.4219,29.4514 320.3125,29.4514 C321.5313,29.4514 322.6875,29.1545 323.4375,28.6076 C324.0156,28.2014 324.3438,27.7482 324.3438,27.3576 C324.3438,26.9045 323.9531,26.5139 323.4844,26.5139 C323.2656,26.5139 323.0625,26.592 322.875,26.7795 C322.4219,27.2639 322.4219,27.2639 322.2344,27.3576 C321.8125,27.6232 321.125,27.7482 320.3594,27.7482 C318.3125,27.7482 317.0156,26.6545 317.0156,24.9514 L317.0156,23.8576 C317.0156,22.0764 318.2656,20.7639 320,20.7639 C320.5781,20.7639 321.1875,20.9201 321.6563,21.1701 C322.1406,21.4514 322.3125,21.6701 322.4063,22.0764 C322.4688,22.4826 322.5,22.6076 322.6406,22.7326 C322.7813,22.8732 323.0156,22.9826 323.2344,22.9826 C323.5,22.9826 323.7656,22.842 323.9375,22.6232 C324.0469,22.467 324.0781,22.2795 324.0781,21.8576 L324.0781,20.4357 C324.0781,19.9982 324.0625,19.8732 323.9688,19.717 C323.8125,19.4514 323.5313,19.3107 323.2344,19.3107 C322.9375,19.3107 322.7344,19.4045 322.5156,19.717 L322.3438,19.6389 Z "/><text fill="#000000" font-family="sans-serif" font-size="12" lengthAdjust="spacingAndGlyphs" textLength="50" x="334" y="27.975">Category</text><rect fill="#FEFECE" filter="url(#f1)" height="32" style="stroke: #A80036; stroke-width: 1.5;" width="55" x="435.5" y="99.967"/><ellipse cx="450.5" cy="115.967" fill="#ADD1B2" rx="11" ry="11" style="stroke: #A80036; stroke-width: 1.0;"/><path d="M452.8438,111.6389 C451.9063,111.2014 451.3125,111.0607 450.4375,111.0607 C447.8125,111.0607 445.8125,113.1389 445.8125,115.8576 L445.8125,116.9826 C445.8125,119.5607 447.9219,121.4514 450.8125,121.4514 C452.0313,121.4514 453.1875,121.1545 453.9375,120.6076 C454.5156,120.2014 454.8438,119.7482 454.8438,119.3576 C454.8438,118.9045 454.4531,118.5139 453.9844,118.5139 C453.7656,118.5139 453.5625,118.592 453.375,118.7795 C452.9219,119.2639 452.9219,119.2639 452.7344,119.3576 C452.3125,119.6232 451.625,119.7482 450.8594,119.7482 C448.8125,119.7482 447.5156,118.6545 447.5156,116.9514 L447.5156,115.8576 C447.5156,114.0764 448.7656,112.7639 450.5,112.7639 C451.0781,112.7639 451.6875,112.9201 452.1563,113.1701 C452.6406,113.4514 452.8125,113.6701 452.9063,114.0764 C452.9688,114.4826 453,114.6076 453.1406,114.7326 C453.2813,114.8732 453.5156,114.9826 453.7344,114.9826 C454,114.9826 454.2656,114.842 454.4375,114.6232 C454.5469,114.467 454.5781,114.2795 454.5781,113.8576 L454.5781,112.4357 C454.5781,111.9982 454.5625,111.8732 454.4688,111.717 C454.3125,111.4514 454.0313,111.3107 453.7344,111.3107 C453.4375,111.3107 453.2344,111.4045 453.0156,111.717 L452.8438,111.6389 Z "/><text fill="#000000" font-family="sans-serif" font-size="12" lengthAdjust="spacingAndGlyphs" textLength="23" x="464.5" y="119.975">Link</text><rect fill="#FEFECE" filter="url(#f1)" height="32" style="stroke: #A80036; stroke-width: 1.5;" width="82" x="478" y="7.967"/><ellipse cx="493" cy="23.967" fill="#ADD1B2" rx="11" ry="11" style="stroke: #A80036; stroke-width: 1.0;"/><path d="M495.3438,19.6389 C494.4063,19.2014 493.8125,19.0607 492.9375,19.0607 C490.3125,19.0607 488.3125,21.1389 488.3125,23.8576 L488.3125,24.9826 C488.3125,27.5607 490.4219,29.4514 493.3125,29.4514 C494.5313,29.4514 495.6875,29.1545 496.4375,28.6076 C497.0156,28.2014 497.3438,27.7482 497.3438,27.3576 C497.3438,26.9045 496.9531,26.5139 496.4844,26.5139 C496.2656,26.5139 496.0625,26.592 495.875,26.7795 C495.4219,27.2639 495.4219,27.2639 495.2344,27.3576 C494.8125,27.6232 494.125,27.7482 493.3594,27.7482 C491.3125,27.7482 490.0156,26.6545 490.0156,24.9514 L490.0156,23.8576 C490.0156,22.0764 491.2656,20.7639 493,20.7639 C493.5781,20.7639 494.1875,20.9201 494.6563,21.1701 C495.1406,21.4514 495.3125,21.6701 495.4063,22.0764 C495.4688,22.4826 495.5,22.6076 495.6406,22.7326 C495.7813,22.8732 496.0156,22.9826 496.2344,22.9826 C496.5,22.9826 496.7656,22.842 496.9375,22.6232 C497.0469,22.467 497.0781,22.2795 497.0781,21.8576 L497.0781,20.4357 C497.0781,19.9982 497.0625,19.8732 496.9688,19.717 C496.8125,19.4514 496.5313,19.3107 496.2344,19.3107 C495.9375,19.3107 495.7344,19.4045 495.5156,19.717 L495.3438,19.6389 Z "/><text fill="#000000" font-family="sans-serif" font-size="12" lengthAdjust="spacingAndGlyphs" textLength="50" x="507" y="27.975">LinkType</text><rect fill="#FEFECE" filter="url(#f1)" height="32" style="stroke: #A80036; stroke-width: 1.5;" width="91" x="161.5" y="559.9671"/><ellipse cx="176.5" cy="575.9671" fill="#ADD1B2" rx="11" ry="11" style="stroke: #A80036; stroke-width: 1.0;"/><path d="M178.8438,571.639 C177.9063,571.2015 177.3125,571.0609 176.4375,571.0609 C173.8125,571.0609 171.8125,573.139 171.8125,575.8577 L171.8125,576.9827 C171.8125,579.5609 173.9219,581.4515 176.8125,581.4515 C178.0313,581.4515 179.1875,581.1546 179.9375,580.6077 C180.5156,580.2015 180.8438,579.7484 180.8438,579.3577 C180.8438,578.9046 180.4531,578.514 179.9844,578.514 C179.7656,578.514 179.5625,578.5921 179.375,578.7796 C178.9219,579.264 178.9219,579.264 178.7344,579.3577 C178.3125,579.6234 177.625,579.7484 176.8594,579.7484 C174.8125,579.7484 173.5156,578.6546 173.5156,576.9515 L173.5156,575.8577 C173.5156,574.0765 174.7656,572.764 176.5,572.764 C177.0781,572.764 177.6875,572.9202 178.1563,573.1702 C178.6406,573.4515 178.8125,573.6702 178.9063,574.0765 C178.9688,574.4827 179,574.6077 179.1406,574.7327 C179.2813,574.8734 179.5156,574.9827 179.7344,574.9827 C180,574.9827 180.2656,574.8421 180.4375,574.6234 C180.5469,574.4671 180.5781,574.2796 180.5781,573.8577 L180.5781,572.4359 C180.5781,571.9984 180.5625,571.8734 180.4688,571.7171 C180.3125,571.4515 180.0313,571.3109 179.7344,571.3109 C179.4375,571.3109 179.2344,571.4046 179.0156,571.7171 L178.8438,571.639 Z "/><text fill="#000000" font-family="sans-serif" font-size="12" lengthAdjust="spacingAndGlyphs" textLength="59" x="190.5" y="579.9751">Repository</text><rect fill="#FEFECE" filter="url(#f1)" height="32" style="stroke: #A80036; stroke-width: 1.5;" width="102" x="6" y="559.9671"/><ellipse cx="21" cy="575.9671" fill="#ADD1B2" rx="11" ry="11" style="stroke: #A80036; stroke-width: 1.0;"/><path d="M23.3438,571.639 C22.4063,571.2015 21.8125,571.0609 20.9375,571.0609 C18.3125,571.0609 16.3125,573.139 16.3125,575.8577 L16.3125,576.9827 C16.3125,579.5609 18.4219,581.4515 21.3125,581.4515 C22.5313,581.4515 23.6875,581.1546 24.4375,580.6077 C25.0156,580.2015 25.3438,579.7484 25.3438,579.3577 C25.3438,578.9046 24.9531,578.514 24.4844,578.514 C24.2656,578.514 24.0625,578.5921 23.875,578.7796 C23.4219,579.264 23.4219,579.264 23.2344,579.3577 C22.8125,579.6234 22.125,579.7484 21.3594,579.7484 C19.3125,579.7484 18.0156,578.6546 18.0156,576.9515 L18.0156,575.8577 C18.0156,574.0765 19.2656,572.764 21,572.764 C21.5781,572.764 22.1875,572.9202 22.6563,573.1702 C23.1406,573.4515 23.3125,573.6702 23.4063,574.0765 C23.4688,574.4827 23.5,574.6077 23.6406,574.7327 C23.7813,574.8734 24.0156,574.9827 24.2344,574.9827 C24.5,574.9827 24.7656,574.8421 24.9375,574.6234 C25.0469,574.4671 25.0781,574.2796 25.0781,573.8577 L25.0781,572.4359 C25.0781,571.9984 25.0625,571.8734 24.9688,571.7171 C24.8125,571.4515 24.5313,571.3109 24.2344,571.3109 C23.9375,571.3109 23.7344,571.4046 23.5156,571.7171 L23.3438,571.639 Z "/><text fill="#000000" font-family="sans-serif" font-size="12" lengthAdjust="spacingAndGlyphs" textLength="70" x="35" y="579.9751">Organization</text><rect fill="#FEFECE" filter="url(#f1)" height="32" style="stroke: #A80036; stroke-width: 1.5;" width="58" x="196" y="283.967"/><ellipse cx="211" cy="299.967" fill="#ADD1B2" rx="11" ry="11" style="stroke: #A80036; stroke-width: 1.0;"/><path d="M213.3438,295.6389 C212.4063,295.2014 211.8125,295.0608 210.9375,295.0608 C208.3125,295.0608 206.3125,297.1389 206.3125,299.8576 L206.3125,300.9826 C206.3125,303.5608 208.4219,305.4514 211.3125,305.4514 C212.5313,305.4514 213.6875,305.1545 214.4375,304.6076 C215.0156,304.2014 215.3438,303.7483 215.3438,303.3576 C215.3438,302.9045 214.9531,302.5139 214.4844,302.5139 C214.2656,302.5139 214.0625,302.592 213.875,302.7795 C213.4219,303.2639 213.4219,303.2639 213.2344,303.3576 C212.8125,303.6233 212.125,303.7483 211.3594,303.7483 C209.3125,303.7483 208.0156,302.6545 208.0156,300.9514 L208.0156,299.8576 C208.0156,298.0764 209.2656,296.7639 211,296.7639 C211.5781,296.7639 212.1875,296.9201 212.6563,297.1701 C213.1406,297.4514 213.3125,297.6701 213.4063,298.0764 C213.4688,298.4826 213.5,298.6076 213.6406,298.7326 C213.7813,298.8733 214.0156,298.9826 214.2344,298.9826 C214.5,298.9826 214.7656,298.842 214.9375,298.6233 C215.0469,298.467 215.0781,298.2795 215.0781,297.8576 L215.0781,296.4358 C215.0781,295.9983 215.0625,295.8733 214.9688,295.717 C214.8125,295.4514 214.5313,295.3108 214.2344,295.3108 C213.9375,295.3108 213.7344,295.4045 213.5156,295.717 L213.3438,295.6389 Z "/><text fill="#000000" font-family="sans-serif" font-size="12" lengthAdjust="spacingAndGlyphs" textLength="26" x="225" y="303.975">Area</text><rect fill="#FEFECE" filter="url(#f1)" height="32" style="stroke: #A80036; stroke-width: 1.5;" width="76" x="307" y="283.967"/><ellipse cx="322" cy="299.967" fill="#ADD1B2" rx="11" ry="11" style="stroke: #A80036; stroke-width: 1.0;"/><path d="M324.3438,295.6389 C323.4063,295.2014 322.8125,295.0608 321.9375,295.0608 C319.3125,295.0608 317.3125,297.1389 317.3125,299.8576 L317.3125,300.9826 C317.3125,303.5608 319.4219,305.4514 322.3125,305.4514 C323.5313,305.4514 324.6875,305.1545 325.4375,304.6076 C326.0156,304.2014 326.3438,303.7483 326.3438,303.3576 C326.3438,302.9045 325.9531,302.5139 325.4844,302.5139 C325.2656,302.5139 325.0625,302.592 324.875,302.7795 C324.4219,303.2639 324.4219,303.2639 324.2344,303.3576 C323.8125,303.6233 323.125,303.7483 322.3594,303.7483 C320.3125,303.7483 319.0156,302.6545 319.0156,300.9514 L319.0156,299.8576 C319.0156,298.0764 320.2656,296.7639 322,296.7639 C322.5781,296.7639 323.1875,296.9201 323.6563,297.1701 C324.1406,297.4514 324.3125,297.6701 324.4063,298.0764 C324.4688,298.4826 324.5,298.6076 324.6406,298.7326 C324.7813,298.8733 325.0156,298.9826 325.2344,298.9826 C325.5,298.9826 325.7656,298.842 325.9375,298.6233 C326.0469,298.467 326.0781,298.2795 326.0781,297.8576 L326.0781,296.4358 C326.0781,295.9983 326.0625,295.8733 325.9688,295.717 C325.8125,295.4514 325.5313,295.3108 325.2344,295.3108 C324.9375,295.3108 324.7344,295.4045 324.5156,295.717 L324.3438,295.6389 Z "/><text fill="#000000" font-family="sans-serif" font-size="12" lengthAdjust="spacingAndGlyphs" textLength="44" x="336" y="303.975">Iteration</text><rect fill="#FEFECE" filter="url(#f1)" height="32" style="stroke: #A80036; stroke-width: 1.5;" width="105" x="525.5" y="99.967"/><ellipse cx="540.5" cy="115.967" fill="#ADD1B2" rx="11" ry="11" style="stroke: #A80036; stroke-width: 1.0;"/><path d="M542.8438,111.6389 C541.9063,111.2014 541.3125,111.0607 540.4375,111.0607 C537.8125,111.0607 535.8125,113.1389 535.8125,115.8576 L535.8125,116.9826 C535.8125,119.5607 537.9219,121.4514 540.8125,121.4514 C542.0313,121.4514 543.1875,121.1545 543.9375,120.6076 C544.5156,120.2014 544.8438,119.7482 544.8438,119.3576 C544.8438,118.9045 544.4531,118.5139 543.9844,118.5139 C543.7656,118.5139 543.5625,118.592 543.375,118.7795 C542.9219,119.2639 542.9219,119.2639 542.7344,119.3576 C542.3125,119.6232 541.625,119.7482 540.8594,119.7482 C538.8125,119.7482 537.5156,118.6545 537.5156,116.9514 L537.5156,115.8576 C537.5156,114.0764 538.7656,112.7639 540.5,112.7639 C541.0781,112.7639 541.6875,112.9201 542.1563,113.1701 C542.6406,113.4514 542.8125,113.6701 542.9063,114.0764 C542.9688,114.4826 543,114.6076 543.1406,114.7326 C543.2813,114.8732 543.5156,114.9826 543.7344,114.9826 C544,114.9826 544.2656,114.842 544.4375,114.6232 C544.5469,114.467 544.5781,114.2795 544.5781,113.8576 L544.5781,112.4357 C544.5781,111.9982 544.5625,111.8732 544.4688,111.717 C544.3125,111.4514 544.0313,111.3107 543.7344,111.3107 C543.4375,111.3107 543.2344,111.4045 543.0156,111.717 L542.8438,111.6389 Z "/><text fill="#000000" font-family="sans-serif" font-size="12" lengthAdjust="spacingAndGlyphs" textLength="73" x="554.5" y="119.975">LinkCategory</text><path d="M145.379,23.967 C155.267,23.967 165.155,23.967 175.042,23.967 " fill="none" style="stroke: #A80036; stroke-width: 1.0;"/><polygon fill="#A80036" points="180.213,23.967,171.213,19.967,175.213,23.967,171.213,27.967,180.213,23.967" style="stroke: #A80036; stroke-width: 1.0;"/><path d="M180.201,38.529 C150.461,49.971 113.289,69.461 93,99.967 C33.401,189.579 48.3904,329.746 55.4025,375.768 " fill="none" style="stroke: #A80036; stroke-width: 1.0;"/><text fill="#000000" font-family="sans-serif" font-size="13" lengthAdjust="spacingAndGlyphs" textLength="7" x="165.5033" y="35.9713">1</text><text fill="#000000" font-family="sans-serif" font-size="13" lengthAdjust="spacingAndGlyphs" textLength="7" x="46.3827" y="364.1567">n</text><path d="M72.7584,408.234 C88.8535,424.885 114.451,451.364 130.46,467.925 " fill="none" style="stroke: #A80036; stroke-width: 1.0;"/><text fill="#000000" font-family="sans-serif" font-size="13" lengthAdjust="spacingAndGlyphs" textLength="7" x="69.347" y="428.3731">1</text><text fill="#000000" font-family="sans-serif" font-size="13" lengthAdjust="spacingAndGlyphs" textLength="7" x="117.4842" y="456.3657">n</text><path d="M180.272,473.607 C241.664,455.189 366.518,407.809 418,315.967 C437.243,281.639 396.064,244.243 368.079,224.014 " fill="none" style="stroke: #A80036; stroke-width: 1.0;"/><text fill="#000000" font-family="sans-serif" font-size="13" lengthAdjust="spacingAndGlyphs" textLength="7" x="187.9052" y="466.3906">1</text><text fill="#000000" font-family="sans-serif" font-size="13" lengthAdjust="spacingAndGlyphs" textLength="7" x="367.5645" y="244.3841">n</text><path d="M155.517,500.234 C166.988,516.8846 185.229,543.3645 196.638,559.9253 " fill="none" style="stroke: #A80036; stroke-width: 1.0;"/><text fill="#000000" font-family="sans-serif" font-size="13" lengthAdjust="spacingAndGlyphs" textLength="7" x="150.7537" y="520.3731">1</text><text fill="#000000" font-family="sans-serif" font-size="13" lengthAdjust="spacingAndGlyphs" textLength="7" x="185.0462" y="548.366">n</text><path d="M345,132.234 C345,148.885 345,175.364 345,191.925 " fill="none" style="stroke: #A80036; stroke-width: 1.0;"/><text fill="#000000" font-family="sans-serif" font-size="13" lengthAdjust="spacingAndGlyphs" textLength="7" x="336.8844" y="152.3731">1</text><text fill="#000000" font-family="sans-serif" font-size="13" lengthAdjust="spacingAndGlyphs" textLength="7" x="336.8406" y="180.3657">n</text><path d="M509.5,40.234 C499.14,56.885 482.664,83.364 472.359,99.925 " fill="none" style="stroke: #A80036; stroke-width: 1.0;"/><text fill="#000000" font-family="sans-serif" font-size="13" lengthAdjust="spacingAndGlyphs" textLength="7" x="498.3563" y="60.3731">1</text><text fill="#000000" font-family="sans-serif" font-size="13" lengthAdjust="spacingAndGlyphs" textLength="7" x="467.2998" y="88.3657">n</text><path d="M529.009,40.234 C539.924,56.885 557.283,83.364 568.139,99.925 " fill="none" style="stroke: #A80036; stroke-width: 1.0;"/><text fill="#000000" font-family="sans-serif" font-size="13" lengthAdjust="spacingAndGlyphs" textLength="7" x="524.0837" y="60.3731">1</text><text fill="#000000" font-family="sans-serif" font-size="13" lengthAdjust="spacingAndGlyphs" textLength="7" x="556.7132" y="88.3657">n</text><path d="M345.83,40.234 C345.645,56.885 345.351,83.364 345.167,99.925 " fill="none" style="stroke: #A80036; stroke-width: 1.0;"/><text fill="#000000" font-family="sans-serif" font-size="13" lengthAdjust="spacingAndGlyphs" textLength="7" x="337.6602" y="60.3731">1</text><text fill="#000000" font-family="sans-serif" font-size="13" lengthAdjust="spacingAndGlyphs" textLength="7" x="337.0629" y="88.3657">n</text><path d="M95.9156,559.9342 C120.041,556.0681 143,561.4124 143,575.9671 C143,590.5218 120.041,595.8661 95.9156,592 " fill="none" style="stroke: #A80036; stroke-width: 1.0;"/><text fill="#000000" font-family="sans-serif" font-size="13" lengthAdjust="spacingAndGlyphs" textLength="7" x="100.647" y="548.3779">1</text><text fill="#000000" font-family="sans-serif" font-size="13" lengthAdjust="spacingAndGlyphs" textLength="7" x="100.647" y="612.3655">n</text><path d="M253.96,283.934 C271.914,280.068 289,285.412 289,299.967 C289,314.522 271.914,319.866 253.96,316 " fill="none" style="stroke: #A80036; stroke-width: 1.0;"/><text fill="#000000" font-family="sans-serif" font-size="13" lengthAdjust="spacingAndGlyphs" textLength="7" x="255.3936" y="272.3776">1</text><text fill="#000000" font-family="sans-serif" font-size="13" lengthAdjust="spacingAndGlyphs" textLength="7" x="255.3936" y="336.3655">n</text><path d="M378.033,283.934 C398.511,280.068 418,285.412 418,299.967 C418,314.522 398.511,319.866 378.033,316 " fill="none" style="stroke: #A80036; stroke-width: 1.0;"/><text fill="#000000" font-family="sans-serif" font-size="13" lengthAdjust="spacingAndGlyphs" textLength="7" x="380.8158" y="272.3776">1</text><text fill="#000000" font-family="sans-serif" font-size="13" lengthAdjust="spacingAndGlyphs" textLength="7" x="380.8158" y="336.3655">n</text><path d="M57.9165,408.171 C57.7278,442.515 57.2704,525.7532 57.0826,559.9342 " fill="none" style="stroke: #A80036; stroke-width: 1.0;"/><text fill="#000000" font-family="sans-serif" font-size="13" lengthAdjust="spacingAndGlyphs" textLength="7" x="49.7743" y="428.29">1</text><text fill="#000000" font-family="sans-serif" font-size="13" lengthAdjust="spacingAndGlyphs" textLength="7" x="48.9506" y="548.3779">n</text><path d="M130.072,500.234 C113.792,516.8846 87.9003,543.3645 71.7075,559.9253 " fill="none" style="stroke: #A80036; stroke-width: 1.0;"/><text fill="#000000" font-family="sans-serif" font-size="13" lengthAdjust="spacingAndGlyphs" textLength="7" x="117.1981" y="520.3731">1</text><text fill="#000000" font-family="sans-serif" font-size="13" lengthAdjust="spacingAndGlyphs" textLength="7" x="68.42" y="548.366">n</text><path d="M324.915,224.031 C302.763,240.645 267.328,267.221 245.151,283.854 " fill="none" style="stroke: #A80036; stroke-width: 1.0;"/><text fill="#000000" font-family="sans-serif" font-size="13" lengthAdjust="spacingAndGlyphs" textLength="7" x="310.1025" y="244.4068">1</text><text fill="#000000" font-family="sans-serif" font-size="13" lengthAdjust="spacingAndGlyphs" textLength="7" x="243.6666" y="272.2711">n</text><path d="M345,224.234 C345,240.885 345,267.364 345,283.925 " fill="none" style="stroke: #A80036; stroke-width: 1.0;"/><text fill="#000000" font-family="sans-serif" font-size="13" lengthAdjust="spacingAndGlyphs" textLength="7" x="336.8844" y="244.3731">1</text><text fill="#000000" font-family="sans-serif" font-size="13" lengthAdjust="spacingAndGlyphs" textLength="7" x="336.8406" y="272.3657">n</text><path d="M120.411,40.234 C125.221,56.885 132.87,83.364 137.655,99.925 " fill="none" style="stroke: #A80036; stroke-width: 1.0;"/><text fill="#000000" font-family="sans-serif" font-size="13" lengthAdjust="spacingAndGlyphs" textLength="7" x="113.7014" y="60.3731">1</text><text fill="#000000" font-family="sans-serif" font-size="13" lengthAdjust="spacingAndGlyphs" textLength="7" x="128.0563" y="88.3657">n</text><path d="M222.076,40.171 C215.471,74.515 199.464,157.753 192.891,191.934 " fill="none" style="stroke: #A80036; stroke-width: 1.0;"/><text fill="#000000" font-family="sans-serif" font-size="13" lengthAdjust="spacingAndGlyphs" textLength="7" x="213.0284" y="60.29">n</text><text fill="#000000" font-family="sans-serif" font-size="13" lengthAdjust="spacingAndGlyphs" textLength="11" x="181.0268" y="180.3776">m</text><path d="M187.517,224.089 C179.649,271.994 155.333,420.052 147.476,467.892 " fill="none" style="stroke: #A80036; stroke-width: 1.0;"/><text fill="#000000" font-family="sans-serif" font-size="13" lengthAdjust="spacingAndGlyphs" textLength="7" x="178.5351" y="244.484">n</text><text fill="#000000" font-family="sans-serif" font-size="13" lengthAdjust="spacingAndGlyphs" textLength="11" x="135.4743" y="456.3217">m</text><path d="M173.719,131.03 C211.075,147.591 272.873,174.99 311.137,191.954 " fill="none" style="stroke: #A80036; stroke-width: 1.0;"/><text fill="#000000" font-family="sans-serif" font-size="13" lengthAdjust="spacingAndGlyphs" textLength="7" x="177.4775" y="152.2297">n</text><text fill="#000000" font-family="sans-serif" font-size="13" lengthAdjust="spacingAndGlyphs" textLength="11" x="287.098" y="180.4043">m</text><path d="M197.048,316.031 C166.221,332.645 116.907,359.221 86.0432,375.854 " fill="none" style="stroke: #A80036; stroke-width: 1.0;"/><text fill="#000000" font-family="sans-serif" font-size="13" lengthAdjust="spacingAndGlyphs" textLength="7" x="180.809" y="335.5026">n</text><text fill="#000000" font-family="sans-serif" font-size="13" lengthAdjust="spacingAndGlyphs" textLength="11" x="82.5106" y="364.2711">m</text><path d="M443.249,132.031 C421.467,148.645 386.623,175.221 364.815,191.854 " fill="none" style="stroke: #A80036; stroke-width: 1.0;"/><text fill="#000000" font-family="sans-serif" font-size="13" lengthAdjust="spacingAndGlyphs" textLength="7" x="428.5471" y="152.4068">1</text><text fill="#000000" font-family="sans-serif" font-size="13" lengthAdjust="spacingAndGlyphs" textLength="7" x="363.2193" y="180.2711">2</text></g></svg>