<?xml version="1.0" encoding="UTF-8" standalone="yes"?><svg xmlns="http://www.w3.org/2000/svg" xmlns:xlink="http://www.w3.org/1999/xlink" height="613px" style="width:471px;height:613px;" version="1.1" viewBox="0 0 471 613" width="471px"><defs><filter height="300%" id="f1" width="300%" x="-1" y="-1"><feGaussianBlur result="blurOut" stdDeviation="2.0"/><feColorMatrix in="blurOut" result="blurOut2" type="matrix" values="0 0 0 0 0 0 0 0 0 0 0 0 0 0 0 0 0 0 .4 0"/><feOffset dx="4.0" dy="4.0" in="blurOut2" result="blurOut3"/><feBlend in="SourceGraphic" in2="blurOut3" mode="normal"/></filter></defs><g><rect fill="#FEFECE" filter="url(#f1)" height="32" style="stroke: #A80036; stroke-width: 1.5;" width="58" x="255" y="7.967"/><ellipse cx="270" cy="23.967" fill="#ADD1B2" rx="11" ry="11" style="stroke: #A80036; stroke-width: 1.0;"/><path d="M272.3438,19.6389 C271.4063,19.2014 270.8125,19.0607 269.9375,19.0607 C267.3125,19.0607 265.3125,21.1389 265.3125,23.8576 L265.3125,24.9826 C265.3125,27.5607 267.4219,29.4514 270.3125,29.4514 C271.5313,29.4514 272.6875,29.1545 273.4375,28.6076 C274.0156,28.2014 274.3438,27.7482 274.3438,27.3576 C274.3438,26.9045 273.9531,26.5139 273.4844,26.5139 C273.2656,26.5139 273.0625,26.592 272.875,26.7795 C272.4219,27.2639 272.4219,27.2639 272.2344,27.3576 C271.8125,27.6232 271.125,27.7482 270.3594,27.7482 C268.3125,27.7482 267.0156,26.6545 267.0156,24.9514 L267.0156,23.8576 C267.0156,22.0764 268.2656,20.7639 270,20.7639 C270.5781,20.7639 271.1875,20.9201 271.6563,21.1701 C272.1406,21.4514 272.3125,21.6701 272.4063,22.0764 C272.4688,22.4826 272.5,22.6076 272.6406,22.7326 C272.7813,22.8732 273.0156,22.9826 273.2344,22.9826 C273.5,22.9826 273.7656,22.842 273.9375,22.6232 C274.0469,22.467 274.0781,22.2795 274.0781,21.8576 L274.0781,20.4357 C274.0781,19.9982 274.0625,19.8732 273.9688,19.717 C273.8125,19.4514 273.5313,19.3107 273.2344,19.3107 C272.9375,19.3107 272.7344,19.4045 272.5156,19.717 L272.3438,19.6389 Z "/><text fill="#000000" font-family="sans-serif" font-size="12" lengthAdjust="spacingAndGlyphs" textLength="26" x="284" y="27.975">User</text><rect fill="#FEFECE" filter="url(#f1)" height="32" style="stroke: #A80036; stroke-width: 1.5;" width="63" x="247.5" y="99.967"/><ellipse cx="262.5" cy="115.967" fill="#ADD1B2" rx="11" ry="11" style="stroke: #A80036; stroke-width: 1.0;"/><path d="M264.8438,111.6389 C263.9063,111.2014 263.3125,111.0607 262.4375,111.0607 C259.8125,111.0607 257.8125,113.1389 257.8125,115.8576 L257.8125,116.9826 C257.8125,119.5607 259.9219,121.4514 262.8125,121.4514 C264.0313,121.4514 265.1875,121.1545 265.9375,120.6076 C266.5156,120.2014 266.8438,119.7482 266.8438,119.3576 C266.8438,118.9045 266.4531,118.5139 265.9844,118.5139 C265.7656,118.5139 265.5625,118.592 265.375,118.7795 C264.9219,119.2639 264.9219,119.2639 264.7344,119.3576 C264.3125,119.6232 263.625,119.7482 262.8594,119.7482 C260.8125,119.7482 259.5156,118.6545 259.5156,116.9514 L259.5156,115.8576 C259.5156,114.0764 260.7656,112.7639 262.5,112.7639 C263.0781,112.7639 263.6875,112.9201 264.1563,113.1701 C264.6406,113.4514 264.8125,113.6701 264.9063,114.0764 C264.9688,114.4826 265,114.6076 265.1406,114.7326 C265.2813,114.8732 265.5156,114.9826 265.7344,114.9826 C266,114.9826 266.2656,114.842 266.4375,114.6232 C266.5469,114.467 266.5781,114.2795 266.5781,113.8576 L266.5781,112.4357 C266.5781,111.9982 266.5625,111.8732 266.4688,111.717 C266.3125,111.4514 266.0313,111.3107 265.7344,111.3107 C265.4375,111.3107 265.2344,111.4045 265.0156,111.717 L264.8438,111.6389 Z "/><text fill="#000000" font-family="sans-serif" font-size="12" lengthAdjust="spacingAndGlyphs" textLength="31" x="276.5" y="119.975">Login</text><rect fill="#FEFECE" filter="url(#f1)" height="32" style="stroke: #A80036; stroke-width: 1.5;" width="89" x="348.5" y="7.967"/><ellipse cx="363.5" cy="23.967" fill="#ADD1B2" rx="11" ry="11" style="stroke: #A80036; stroke-width: 1.0;"/><path d="M365.8438,19.6389 C364.9063,19.2014 364.3125,19.0607 363.4375,19.0607 C360.8125,19.0607 358.8125,21.1389 358.8125,23.8576 L358.8125,24.9826 C358.8125,27.5607 360.9219,29.4514 363.8125,29.4514 C365.0313,29.4514 366.1875,29.1545 366.9375,28.6076 C367.5156,28.2014 367.8438,27.7482 367.8438,27.3576 C367.8438,26.9045 367.4531,26.5139 366.9844,26.5139 C366.7656,26.5139 366.5625,26.592 366.375,26.7795 C365.9219,27.2639 365.9219,27.2639 365.7344,27.3576 C365.3125,27.6232 364.625,27.7482 363.8594,27.7482 C361.8125,27.7482 360.5156,26.6545 360.5156,24.9514 L360.5156,23.8576 C360.5156,22.0764 361.7656,20.7639 363.5,20.7639 C364.0781,20.7639 364.6875,20.9201 365.1563,21.1701 C365.6406,21.4514 365.8125,21.6701 365.9063,22.0764 C365.9688,22.4826 366,22.6076 366.1406,22.7326 C366.2813,22.8732 366.5156,22.9826 366.7344,22.9826 C367,22.9826 367.2656,22.842 367.4375,22.6232 C367.5469,22.467 367.5781,22.2795 367.5781,21.8576 L367.5781,20.4357 C367.5781,19.9982 367.5625,19.8732 367.4688,19.717 C367.3125,19.4514 367.0313,19.3107 366.7344,19.3107 C366.4375,19.3107 366.2344,19.4045 366.0156,19.717 L365.8438,19.6389 Z "/><text fill="#000000" font-family="sans-serif" font-size="12" lengthAdjust="spacingAndGlyphs" textLength="57" x="377.5" y="27.975">TeamRole</text><rect fill="#FEFECE" filter="url(#f1)" height="32" style="stroke: #A80036; stroke-width: 1.5;" width="83" x="137.5" y="191.967"/><ellipse cx="152.5" cy="207.967" fill="#ADD1B2" rx="11" ry="11" style="stroke: #A80036; stroke-width: 1.0;"/><path d="M154.8438,203.6389 C153.9063,203.2014 153.3125,203.0607 152.4375,203.0607 C149.8125,203.0607 147.8125,205.1389 147.8125,207.8576 L147.8125,208.9826 C147.8125,211.5607 149.9219,213.4514 152.8125,213.4514 C154.0313,213.4514 155.1875,213.1545 155.9375,212.6076 C156.5156,212.2014 156.8438,211.7482 156.8438,211.3576 C156.8438,210.9045 156.4531,210.5139 155.9844,210.5139 C155.7656,210.5139 155.5625,210.592 155.375,210.7795 C154.9219,211.2639 154.9219,211.2639 154.7344,211.3576 C154.3125,211.6232 153.625,211.7482 152.8594,211.7482 C150.8125,211.7482 149.5156,210.6545 149.5156,208.9514 L149.5156,207.8576 C149.5156,206.0764 150.7656,204.7639 152.5,204.7639 C153.0781,204.7639 153.6875,204.9201 154.1563,205.1701 C154.6406,205.4514 154.8125,205.6701 154.9063,206.0764 C154.9688,206.4826 155,206.6076 155.1406,206.7326 C155.2813,206.8732 155.5156,206.9826 155.7344,206.9826 C156,206.9826 156.2656,206.842 156.4375,206.6232 C156.5469,206.467 156.5781,206.2795 156.5781,205.8576 L156.5781,204.4357 C156.5781,203.9982 156.5625,203.8732 156.4688,203.717 C156.3125,203.4514 156.0313,203.3107 155.7344,203.3107 C155.4375,203.3107 155.2344,203.4045 155.0156,203.717 L154.8438,203.6389 Z "/><text fill="#000000" font-family="sans-serif" font-size="12" lengthAdjust="spacingAndGlyphs" textLength="51" x="166.5" y="211.975">WorkItem</text><rect fill="#FEFECE" filter="url(#f1)" height="32" style="stroke: #A80036; stroke-width: 1.5;" width="63" x="342.5" y="375.967"/><ellipse cx="357.5" cy="391.967" fill="#ADD1B2" rx="11" ry="11" style="stroke: #A80036; stroke-width: 1.0;"/><path d="M359.8438,387.6389 C358.9063,387.2014 358.3125,387.0608 357.4375,387.0608 C354.8125,387.0608 352.8125,389.1389 352.8125,391.8576 L352.8125,392.9826 C352.8125,395.5608 354.9219,397.4514 357.8125,397.4514 C359.0313,397.4514 360.1875,397.1545 360.9375,396.6076 C361.5156,396.2014 361.8438,395.7483 361.8438,395.3576 C361.8438,394.9045 361.4531,394.5139 360.9844,394.5139 C360.7656,394.5139 360.5625,394.592 360.375,394.7795 C359.9219,395.2639 359.9219,395.2639 359.7344,395.3576 C359.3125,395.6233 358.625,395.7483 357.8594,395.7483 C355.8125,395.7483 354.5156,394.6545 354.5156,392.9514 L354.5156,391.8576 C354.5156,390.0764 355.7656,388.7639 357.5,388.7639 C358.0781,388.7639 358.6875,388.9201 359.1563,389.1701 C359.6406,389.4514 359.8125,389.6701 359.9063,390.0764 C359.9688,390.4826 360,390.6076 360.1406,390.7326 C360.2813,390.8733 360.5156,390.9826 360.7344,390.9826 C361,390.9826 361.2656,390.842 361.4375,390.6233 C361.5469,390.467 361.5781,390.2795 361.5781,389.8576 L361.5781,388.4358 C361.5781,387.9983 361.5625,387.8733 361.4688,387.717 C361.3125,387.4514 361.0313,387.3108 360.7344,387.3108 C360.4375,387.3108 360.2344,387.4045 360.0156,387.717 L359.8438,387.6389 Z "/><text fill="#000000" font-family="sans-serif" font-size="12" lengthAdjust="spacingAndGlyphs" textLength="31" x="371.5" y="395.975">Team</text><rect fill="#FEFECE" filter="url(#f1)" height="32" style="stroke: #A80036; stroke-width: 1.5;" width="93" x="289.5" y="191.967"/><ellipse cx="304.5" cy="207.967" fill="#ADD1B2" rx="11" ry="11" style="stroke: #A80036; stroke-width: 1.0;"/><path d="M306.8438,203.6389 C305.9063,203.2014 305.3125,203.0607 304.4375,203.0607 C301.8125,203.0607 299.8125,205.1389 299.8125,207.8576 L299.8125,208.9826 C299.8125,211.5607 301.9219,213.4514 304.8125,213.4514 C306.0313,213.4514 307.1875,213.1545 307.9375,212.6076 C308.5156,212.2014 308.8438,211.7482 308.8438,211.3576 C308.8438,210.9045 308.4531,210.5139 307.9844,210.5139 C307.7656,210.5139 307.5625,210.592 307.375,210.7795 C306.9219,211.2639 306.9219,211.2639 306.7344,211.3576 C306.3125,211.6232 305.625,211.7482 304.8594,211.7482 C302.8125,211.7482 301.5156,210.6545 301.5156,208.9514 L301.5156,207.8576 C301.5156,206.0764 302.7656,204.7639 304.5,204.7639 C305.0781,204.7639 305.6875,204.9201 306.1563,205.1701 C306.6406,205.4514 306.8125,205.6701 306.9063,206.0764 C306.9688,206.4826 307,206.6076 307.1406,206.7326 C307.2813,206.8732 307.5156,206.9826 307.7344,206.9826 C308,206.9826 308.2656,206.842 308.4375,206.6232 C308.5469,206.467 308.5781,206.2795 308.5781,205.8576 L308.5781,204.4357 C308.5781,203.9982 308.5625,203.8732 308.4688,203.717 C308.3125,203.4514 308.0313,203.3107 307.7344,203.3107 C307.4375,203.3107 307.2344,203.4045 307.0156,203.717 L306.8438,203.6389 Z "/><text fill="#000000" font-family="sans-serif" font-size="12" lengthAdjust="spacingAndGlyphs" textLength="61" x="318.5" y="211.975">Permission</text><rect fill="#FEFECE" filter="url(#f1)" height="32" style="stroke: #A80036; stroke-width: 1.5;" width="70" x="252" y="467.967"/><ellipse cx="267" cy="483.967" fill="#ADD1B2" rx="11" ry="11" style="stroke: #A80036; stroke-width: 1.0;"/><path d="M269.3438,479.6389 C268.4063,479.2014 267.8125,479.0608 266.9375,479.0608 C264.3125,479.0608 262.3125,481.1389 262.3125,483.8576 L262.3125,484.9826 C262.3125,487.5608 264.4219,489.4514 267.3125,489.4514 C268.5313,489.4514 269.6875,489.1545 270.4375,488.6076 C271.0156,488.2014 271.3438,487.7483 271.3438,487.3576 C271.3438,486.9045 270.9531,486.5139 270.4844,486.5139 C270.2656,486.5139 270.0625,486.592 269.875,486.7795 C269.4219,487.2639 269.4219,487.2639 269.2344,487.3576 C268.8125,487.6233 268.125,487.7483 267.3594,487.7483 C265.3125,487.7483 264.0156,486.6545 264.0156,484.9514 L264.0156,483.8576 C264.0156,482.0764 265.2656,480.7639 267,480.7639 C267.5781,480.7639 268.1875,480.9201 268.6563,481.1701 C269.1406,481.4514 269.3125,481.6701 269.4063,482.0764 C269.4688,482.4826 269.5,482.6076 269.6406,482.7326 C269.7813,482.8733 270.0156,482.9826 270.2344,482.9826 C270.5,482.9826 270.7656,482.842 270.9375,482.6233 C271.0469,482.467 271.0781,482.2795 271.0781,481.8576 L271.0781,480.4358 C271.0781,479.9983 271.0625,479.8733 270.9688,479.717 C270.8125,479.4514 270.5313,479.3108 270.2344,479.3108 C269.9375,479.3108 269.7344,479.4045 269.5156,479.717 L269.3438,479.6389 Z "/><text fill="#000000" font-family="sans-serif" font-size="12" lengthAdjust="spacingAndGlyphs" textLength="38" x="281" y="487.975">Project</text><rect fill="#FEFECE" filter="url(#f1)" height="32" style="stroke: #A80036; stroke-width: 1.5;" width="110" x="6" y="99.967"/><ellipse cx="21" cy="115.967" fill="#ADD1B2" rx="11" ry="11" style="stroke: #A80036; stroke-width: 1.0;"/><path d="M23.3438,111.6389 C22.4063,111.2014 21.8125,111.0607 20.9375,111.0607 C18.3125,111.0607 16.3125,113.1389 16.3125,115.8576 L16.3125,116.9826 C16.3125,119.5607 18.4219,121.4514 21.3125,121.4514 C22.5313,121.4514 23.6875,121.1545 24.4375,120.6076 C25.0156,120.2014 25.3438,119.7482 25.3438,119.3576 C25.3438,118.9045 24.9531,118.5139 24.4844,118.5139 C24.2656,118.5139 24.0625,118.592 23.875,118.7795 C23.4219,119.2639 23.4219,119.2639 23.2344,119.3576 C22.8125,119.6232 22.125,119.7482 21.3594,119.7482 C19.3125,119.7482 18.0156,118.6545 18.0156,116.9514 L18.0156,115.8576 C18.0156,114.0764 19.2656,112.7639 21,112.7639 C21.5781,112.7639 22.1875,112.9201 22.6563,113.1701 C23.1406,113.4514 23.3125,113.6701 23.4063,114.0764 C23.4688,114.4826 23.5,114.6076 23.6406,114.7326 C23.7813,114.8732 24.0156,114.9826 24.2344,114.9826 C24.5,114.9826 24.7656,114.842 24.9375,114.6232 C25.0469,114.467 25.0781,114.2795 25.0781,113.8576 L25.0781,112.4357 C25.0781,111.9982 25.0625,111.8732 24.9688,111.717 C24.8125,111.4514 24.5313,111.3107 24.2344,111.3107 C23.9375,111.3107 23.7344,111.4045 23.5156,111.717 L23.3438,111.6389 Z "/><text fill="#000000" font-family="sans-serif" font-size="12" lengthAdjust="spacingAndGlyphs" textLength="78" x="35" y="119.975">WorkItemType</text><rect fill="#FEFECE" filter="url(#f1)" height="32" style="stroke: #A80036; stroke-width: 1.5;" width="82" x="20" y="7.967"/><ellipse cx="35" cy="23.967" fill="#ADD1B2" rx="11" ry="11" style="stroke: #A80036; stroke-width: 1.0;"/><path d="M37.3438,19.6389 C36.4063,19.2014 35.8125,19.0607 34.9375,19.0607 C32.3125,19.0607 30.3125,21.1389 30.3125,23.8576 L30.3125,24.9826 C30.3125,27.5607 32.4219,29.4514 35.3125,29.4514 C36.5313,29.4514 37.6875,29.1545 38.4375,28.6076 C39.0156,28.2014 39.3438,27.7482 39.3438,27.3576 C39.3438,26.9045 38.9531,26.5139 38.4844,26.5139 C38.2656,26.5139 38.0625,26.592 37.875,26.7795 C37.4219,27.2639 37.4219,27.2639 37.2344,27.3576 C36.8125,27.6232 36.125,27.7482 35.3594,27.7482 C33.3125,27.7482 32.0156,26.6545 32.0156,24.9514 L32.0156,23.8576 C32.0156,22.0764 33.2656,20.7639 35,20.7639 C35.5781,20.7639 36.1875,20.9201 36.6563,21.1701 C37.1406,21.4514 37.3125,21.6701 37.4063,22.0764 C37.4688,22.4826 37.5,22.6076 37.6406,22.7326 C37.7813,22.8732 38.0156,22.9826 38.2344,22.9826 C38.5,22.9826 38.7656,22.842 38.9375,22.6232 C39.0469,22.467 39.0781,22.2795 39.0781,21.8576 L39.0781,20.4357 C39.0781,19.9982 39.0625,19.8732 38.9688,19.717 C38.8125,19.4514 38.5313,19.3107 38.2344,19.3107 C37.9375,19.3107 37.7344,19.4045 37.5156,19.717 L37.3438,19.6389 Z "/><text fill="#000000" font-family="sans-serif" font-size="12" lengthAdjust="spacingAndGlyphs" textLength="50" x="49" y="27.975">Category</text><rect fill="#FEFECE" filter="url(#f1)" height="32" style="stroke: #A80036; stroke-width: 1.5;" width="55" x="151.5" y="99.967"/><ellipse cx="166.5" cy="115.967" fill="#ADD1B2" rx="11" ry="11" style="stroke: #A80036; stroke-width: 1.0;"/><path d="M168.8438,111.6389 C167.9063,111.2014 167.3125,111.0607 166.4375,111.0607 C163.8125,111.0607 161.8125,113.1389 161.8125,115.8576 L161.8125,116.9826 C161.8125,119.5607 163.9219,121.4514 166.8125,121.4514 C168.0313,121.4514 169.1875,121.1545 169.9375,120.6076 C170.5156,120.2014 170.8438,119.7482 170.8438,119.3576 C170.8438,118.9045 170.4531,118.5139 169.9844,118.5139 C169.7656,118.5139 169.5625,118.592 169.375,118.7795 C168.9219,119.2639 168.9219,119.2639 168.7344,119.3576 C168.3125,119.6232 167.625,119.7482 166.8594,119.7482 C164.8125,119.7482 163.5156,118.6545 163.5156,116.9514 L163.5156,115.8576 C163.5156,114.0764 164.7656,112.7639 166.5,112.7639 C167.0781,112.7639 167.6875,112.9201 168.1563,113.1701 C168.6406,113.4514 168.8125,113.6701 168.9063,114.0764 C168.9688,114.4826 169,114.6076 169.1406,114.7326 C169.2813,114.8732 169.5156,114.9826 169.7344,114.9826 C170,114.9826 170.2656,114.842 170.4375,114.6232 C170.5469,114.467 170.5781,114.2795 170.5781,113.8576 L170.5781,112.4357 C170.5781,111.9982 170.5625,111.8732 170.4688,111.717 C170.3125,111.4514 170.0313,111.3107 169.7344,111.3107 C169.4375,111.3107 169.2344,111.4045 169.0156,111.717 L168.8438,111.6389 Z "/><text fill="#000000" font-family="sans-serif" font-size="12" lengthAdjust="spacingAndGlyphs" textLength="23" x="180.5" y="119.975">Link</text><rect fill="#FEFECE" filter="url(#f1)" height="32" style="stroke: #A80036; stroke-width: 1.5;" width="82" x="138" y="7.967"/><ellipse cx="153" cy="23.967" fill="#ADD1B2" rx="11" ry="11" style="stroke: #A80036; stroke-width: 1.0;"/><path d="M155.3438,19.6389 C154.4063,19.2014 153.8125,19.0607 152.9375,19.0607 C150.3125,19.0607 148.3125,21.1389 148.3125,23.8576 L148.3125,24.9826 C148.3125,27.5607 150.4219,29.4514 153.3125,29.4514 C154.5313,29.4514 155.6875,29.1545 156.4375,28.6076 C157.0156,28.2014 157.3438,27.7482 157.3438,27.3576 C157.3438,26.9045 156.9531,26.5139 156.4844,26.5139 C156.2656,26.5139 156.0625,26.592 155.875,26.7795 C155.4219,27.2639 155.4219,27.2639 155.2344,27.3576 C154.8125,27.6232 154.125,27.7482 153.3594,27.7482 C151.3125,27.7482 150.0156,26.6545 150.0156,24.9514 L150.0156,23.8576 C150.0156,22.0764 151.2656,20.7639 153,20.7639 C153.5781,20.7639 154.1875,20.9201 154.6563,21.1701 C155.1406,21.4514 155.3125,21.6701 155.4063,22.0764 C155.4688,22.4826 155.5,22.6076 155.6406,22.7326 C155.7813,22.8732 156.0156,22.9826 156.2344,22.9826 C156.5,22.9826 156.7656,22.842 156.9375,22.6232 C157.0469,22.467 157.0781,22.2795 157.0781,21.8576 L157.0781,20.4357 C157.0781,19.9982 157.0625,19.8732 156.9688,19.717 C156.8125,19.4514 156.5313,19.3107 156.2344,19.3107 C155.9375,19.3107 155.7344,19.4045 155.5156,19.717 L155.3438,19.6389 Z "/><text fill="#000000" font-family="sans-serif" font-size="12" lengthAdjust="spacingAndGlyphs" textLength="50" x="167" y="27.975">LinkType</text><rect fill="#FEFECE" filter="url(#f1)" height="32" style="stroke: #A80036; stroke-width: 1.5;" width="91" x="197.5" y="559.9671"/><ellipse cx="212.5" cy="575.9671" fill="#ADD1B2" rx="11" ry="11" style="stroke: #A80036; stroke-width: 1.0;"/><path d="M214.8438,571.639 C213.9063,571.2015 213.3125,571.0609 212.4375,571.0609 C209.8125,571.0609 207.8125,573.139 207.8125,575.8577 L207.8125,576.9827 C207.8125,579.5609 209.9219,581.4515 212.8125,581.4515 C214.0313,581.4515 215.1875,581.1546 215.9375,580.6077 C216.5156,580.2015 216.8438,579.7484 216.8438,579.3577 C216.8438,578.9046 216.4531,578.514 215.9844,578.514 C215.7656,578.514 215.5625,578.5921 215.375,578.7796 C214.9219,579.264 214.9219,579.264 214.7344,579.3577 C214.3125,579.6234 213.625,579.7484 212.8594,579.7484 C210.8125,579.7484 209.5156,578.6546 209.5156,576.9515 L209.5156,575.8577 C209.5156,574.0765 210.7656,572.764 212.5,572.764 C213.0781,572.764 213.6875,572.9202 214.1563,573.1702 C214.6406,573.4515 214.8125,573.6702 214.9063,574.0765 C214.9688,574.4827 215,574.6077 215.1406,574.7327 C215.2813,574.8734 215.5156,574.9827 215.7344,574.9827 C216,574.9827 216.2656,574.8421 216.4375,574.6234 C216.5469,574.4671 216.5781,574.2796 216.5781,573.8577 L216.5781,572.4359 C216.5781,571.9984 216.5625,571.8734 216.4688,571.7171 C216.3125,571.4515 216.0313,571.3109 215.7344,571.3109 C215.4375,571.3109 215.2344,571.4046 215.0156,571.7171 L214.8438,571.639 Z "/><text fill="#000000" font-family="sans-serif" font-size="12" lengthAdjust="spacingAndGlyphs" textLength="59" x="226.5" y="579.9751">Repository</text><rect fill="#FEFECE" filter="url(#f1)" height="32" style="stroke: #A80036; stroke-width: 1.5;" width="102" x="324" y="559.9671"/><ellipse cx="339" cy="575.9671" fill="#ADD1B2" rx="11" ry="11" style="stroke: #A80036; stroke-width: 1.0;"/><path d="M341.3438,571.639 C340.4063,571.2015 339.8125,571.0609 338.9375,571.0609 C336.3125,571.0609 334.3125,573.139 334.3125,575.8577 L334.3125,576.9827 C334.3125,579.5609 336.4219,581.4515 339.3125,581.4515 C340.5313,581.4515 341.6875,581.1546 342.4375,580.6077 C343.0156,580.2015 343.3438,579.7484 343.3438,579.3577 C343.3438,578.9046 342.9531,578.514 342.4844,578.514 C342.2656,578.514 342.0625,578.5921 341.875,578.7796 C341.4219,579.264 341.4219,579.264 341.2344,579.3577 C340.8125,579.6234 340.125,579.7484 339.3594,579.7484 C337.3125,579.7484 336.0156,578.6546 336.0156,576.9515 L336.0156,575.8577 C336.0156,574.0765 337.2656,572.764 339,572.764 C339.5781,572.764 340.1875,572.9202 340.6563,573.1702 C341.1406,573.4515 341.3125,573.6702 341.4063,574.0765 C341.4688,574.4827 341.5,574.6077 341.6406,574.7327 C341.7813,574.8734 342.0156,574.9827 342.2344,574.9827 C342.5,574.9827 342.7656,574.8421 342.9375,574.6234 C343.0469,574.4671 343.0781,574.2796 343.0781,573.8577 L343.0781,572.4359 C343.0781,571.9984 343.0625,571.8734 342.9688,571.7171 C342.8125,571.4515 342.5313,571.3109 342.2344,571.3109 C341.9375,571.3109 341.7344,571.4046 341.5156,571.7171 L341.3438,571.639 Z "/><text fill="#000000" font-family="sans-serif" font-size="12" lengthAdjust="spacingAndGlyphs" textLength="70" x="353" y="579.9751">Organization</text><rect fill="#FEFECE" filter="url(#f1)" height="32" style="stroke: #A80036; stroke-width: 1.5;" width="58" x="341" y="283.967"/><ellipse cx="356" cy="299.967" fill="#ADD1B2" rx="11" ry="11" style="stroke: #A80036; stroke-width: 1.0;"/><path d="M358.3438,295.6389 C357.4063,295.2014 356.8125,295.0608 355.9375,295.0608 C353.3125,295.0608 351.3125,297.1389 351.3125,299.8576 L351.3125,300.9826 C351.3125,303.5608 353.4219,305.4514 356.3125,305.4514 C357.5313,305.4514 358.6875,305.1545 359.4375,304.6076 C360.0156,304.2014 360.3438,303.7483 360.3438,303.3576 C360.3438,302.9045 359.9531,302.5139 359.4844,302.5139 C359.2656,302.5139 359.0625,302.592 358.875,302.7795 C358.4219,303.2639 358.4219,303.2639 358.2344,303.3576 C357.8125,303.6233 357.125,303.7483 356.3594,303.7483 C354.3125,303.7483 353.0156,302.6545 353.0156,300.9514 L353.0156,299.8576 C353.0156,298.0764 354.2656,296.7639 356,296.7639 C356.5781,296.7639 357.1875,296.9201 357.6563,297.1701 C358.1406,297.4514 358.3125,297.6701 358.4063,298.0764 C358.4688,298.4826 358.5,298.6076 358.6406,298.7326 C358.7813,298.8733 359.0156,298.9826 359.2344,298.9826 C359.5,298.9826 359.7656,298.842 359.9375,298.6233 C360.0469,298.467 360.0781,298.2795 360.0781,297.8576 L360.0781,296.4358 C360.0781,295.9983 360.0625,295.8733 359.9688,295.717 C359.8125,295.4514 359.5313,295.3108 359.2344,295.3108 C358.9375,295.3108 358.7344,295.4045 358.5156,295.717 L358.3438,295.6389 Z "/><text fill="#000000" font-family="sans-serif" font-size="12" lengthAdjust="spacingAndGlyphs" textLength="26" x="370" y="303.975">Area</text><rect fill="#FEFECE" filter="url(#f1)" height="32" style="stroke: #A80036; stroke-width: 1.5;" width="76" x="141" y="283.967"/><ellipse cx="156" cy="299.967" fill="#ADD1B2" rx="11" ry="11" style="stroke: #A80036; stroke-width: 1.0;"/><path d="M158.3438,295.6389 C157.4063,295.2014 156.8125,295.0608 155.9375,295.0608 C153.3125,295.0608 151.3125,297.1389 151.3125,299.8576 L151.3125,300.9826 C151.3125,303.5608 153.4219,305.4514 156.3125,305.4514 C157.5313,305.4514 158.6875,305.1545 159.4375,304.6076 C160.0156,304.2014 160.3438,303.7483 160.3438,303.3576 C160.3438,302.9045 159.9531,302.5139 159.4844,302.5139 C159.2656,302.5139 159.0625,302.592 158.875,302.7795 C158.4219,303.2639 158.4219,303.2639 158.2344,303.3576 C157.8125,303.6233 157.125,303.7483 156.3594,303.7483 C154.3125,303.7483 153.0156,302.6545 153.0156,300.9514 L153.0156,299.8576 C153.0156,298.0764 154.2656,296.7639 156,296.7639 C156.5781,296.7639 157.1875,296.9201 157.6563,297.1701 C158.1406,297.4514 158.3125,297.6701 158.4063,298.0764 C158.4688,298.4826 158.5,298.6076 158.6406,298.7326 C158.7813,298.8733 159.0156,298.9826 159.2344,298.9826 C159.5,298.9826 159.7656,298.842 159.9375,298.6233 C160.0469,298.467 160.0781,298.2795 160.0781,297.8576 L160.0781,296.4358 C160.0781,295.9983 160.0625,295.8733 159.9688,295.717 C159.8125,295.4514 159.5313,295.3108 159.2344,295.3108 C158.9375,295.3108 158.7344,295.4045 158.5156,295.717 L158.3438,295.6389 Z "/><text fill="#000000" font-family="sans-serif" font-size="12" lengthAdjust="spacingAndGlyphs" textLength="44" x="170" y="303.975">Iteration</text><path d="M313.379,23.967 C323.267,23.967 333.155,23.967 343.042,23.967 " fill="none" style="stroke: #A80036; stroke-width: 1.0;"/><polygon fill="#A80036" points="348.213,23.967,339.213,19.967,343.213,23.967,339.213,27.967,348.213,23.967" style="stroke: #A80036; stroke-width: 1.0;"/><path d="M400.057,39.994 C419.636,83.85 470.89,214.961 435,315.967 C426.458,340.006 406.555,361.939 391.793,375.792 " fill="none" style="stroke: #A80036; stroke-width: 1.0;"/><text fill="#000000" font-family="sans-serif" font-size="13" lengthAdjust="spacingAndGlyphs" textLength="7" x="394.2353" y="60.3575">1</text><text fill="#000000" font-family="sans-serif" font-size="13" lengthAdjust="spacingAndGlyphs" textLength="7" x="389.5276" y="364.1886">n</text><path d="M359.242,408.234 C343.146,424.885 317.549,451.364 301.54,467.925 " fill="none" style="stroke: #A80036; stroke-width: 1.0;"/><text fill="#000000" font-family="sans-serif" font-size="13" lengthAdjust="spacingAndGlyphs" textLength="7" x="346.4223" y="428.3731">1</text><text fill="#000000" font-family="sans-serif" font-size="13" lengthAdjust="spacingAndGlyphs" textLength="7" x="298.197" y="456.3657">n</text><path d="M263.028,467.821 C224.824,442.081 151.531,385.739 123,315.967 C109.112,282.005 140.381,244.474 161.558,224.124 " fill="none" style="stroke: #A80036; stroke-width: 1.0;"/><text fill="#000000" font-family="sans-serif" font-size="13" lengthAdjust="spacingAndGlyphs" textLength="7" x="246.9279" y="456.2272">1</text><text fill="#000000" font-family="sans-serif" font-size="13" lengthAdjust="spacingAndGlyphs" textLength="7" x="147.8827" y="244.228">n</text><path d="M279.536,500.234 C271.396,516.8846 258.45,543.3645 250.354,559.9253 " fill="none" style="stroke: #A80036; stroke-width: 1.0;"/><text fill="#000000" font-family="sans-serif" font-size="13" lengthAdjust="spacingAndGlyphs" textLength="7" x="269.0412" y="520.3731">1</text><text fill="#000000" font-family="sans-serif" font-size="13" lengthAdjust="spacingAndGlyphs" textLength="7" x="244.6306" y="548.366">n</text><path d="M80.7505,132.031 C102.5327,148.645 137.377,175.221 159.185,191.854 " fill="none" style="stroke: #A80036; stroke-width: 1.0;"/><text fill="#000000" font-family="sans-serif" font-size="13" lengthAdjust="spacingAndGlyphs" textLength="7" x="79.1335" y="152.4068">1</text><text fill="#000000" font-family="sans-serif" font-size="13" lengthAdjust="spacingAndGlyphs" textLength="7" x="144.4619" y="180.2711">n</text><path d="M179,40.234 C179,56.885 179,83.364 179,99.925 " fill="none" style="stroke: #A80036; stroke-width: 1.0;"/><text fill="#000000" font-family="sans-serif" font-size="13" lengthAdjust="spacingAndGlyphs" textLength="7" x="170.8844" y="60.3731">1</text><text fill="#000000" font-family="sans-serif" font-size="13" lengthAdjust="spacingAndGlyphs" textLength="7" x="170.8406" y="88.3657">n</text><path d="M61,40.234 C61,56.885 61,83.364 61,99.925 " fill="none" style="stroke: #A80036; stroke-width: 1.0;"/><text fill="#000000" font-family="sans-serif" font-size="13" lengthAdjust="spacingAndGlyphs" textLength="7" x="52.8844" y="60.3731">1</text><text fill="#000000" font-family="sans-serif" font-size="13" lengthAdjust="spacingAndGlyphs" textLength="7" x="52.8406" y="88.3657">n</text><path d="M413.916,559.9342 C438.041,556.0681 461,561.4124 461,575.9671 C461,590.5218 438.041,595.8661 413.916,592 " fill="none" style="stroke: #A80036; stroke-width: 1.0;"/><text fill="#000000" font-family="sans-serif" font-size="13" lengthAdjust="spacingAndGlyphs" textLength="7" x="418.6476" y="548.3779">1</text><text fill="#000000" font-family="sans-serif" font-size="13" lengthAdjust="spacingAndGlyphs" textLength="7" x="418.6476" y="612.3655">n</text><path d="M398.96,283.934 C416.914,280.068 434,285.412 434,299.967 C434,314.522 416.914,319.866 398.96,316 " fill="none" style="stroke: #A80036; stroke-width: 1.0;"/><text fill="#000000" font-family="sans-serif" font-size="13" lengthAdjust="spacingAndGlyphs" textLength="7" x="400.3936" y="272.3776">1</text><text fill="#000000" font-family="sans-serif" font-size="13" lengthAdjust="spacingAndGlyphs" textLength="7" x="400.3936" y="336.3655">n</text><path d="M212.033,283.934 C232.511,280.068 252,285.412 252,299.967 C252,314.522 232.511,319.866 212.033,316 " fill="none" style="stroke: #A80036; stroke-width: 1.0;"/><text fill="#000000" font-family="sans-serif" font-size="13" lengthAdjust="spacingAndGlyphs" textLength="7" x="214.8158" y="272.3776">1</text><text fill="#000000" font-family="sans-serif" font-size="13" lengthAdjust="spacingAndGlyphs" textLength="7" x="214.8158" y="336.3655">n</text><path d="M374.084,408.171 C374.272,442.515 374.73,525.7532 374.917,559.9342 " fill="none" style="stroke: #A80036; stroke-width: 1.0;"/><text fill="#000000" font-family="sans-serif" font-size="13" lengthAdjust="spacingAndGlyphs" textLength="7" x="365.9952" y="428.29">1</text><text fill="#000000" font-family="sans-serif" font-size="13" lengthAdjust="spacingAndGlyphs" textLength="7" x="366.7301" y="548.3779">n</text><path d="M301.928,500.234 C318.208,516.8846 344.1,543.3645 360.292,559.9253 " fill="none" style="stroke: #A80036; stroke-width: 1.0;"/><text fill="#000000" font-family="sans-serif" font-size="13" lengthAdjust="spacingAndGlyphs" textLength="7" x="298.5707" y="520.3731">1</text><text fill="#000000" font-family="sans-serif" font-size="13" lengthAdjust="spacingAndGlyphs" textLength="7" x="347.2606" y="548.366">n</text><path d="M210.969,224.031 C247.182,241.095 305.701,268.669 340.75,285.184 " fill="none" style="stroke: #A80036; stroke-width: 1.0;"/><text fill="#000000" font-family="sans-serif" font-size="13" lengthAdjust="spacingAndGlyphs" textLength="7" x="213.3994" y="244.4068">1</text><text fill="#000000" font-family="sans-serif" font-size="13" lengthAdjust="spacingAndGlyphs" textLength="7" x="326.1766" y="276.3153">n</text><path d="M179,224.234 C179,240.885 179,267.364 179,283.925 " fill="none" style="stroke: #A80036; stroke-width: 1.0;"/><text fill="#000000" font-family="sans-serif" font-size="13" lengthAdjust="spacingAndGlyphs" textLength="7" x="170.8844" y="244.3731">1</text><text fill="#000000" font-family="sans-serif" font-size="13" lengthAdjust="spacingAndGlyphs" textLength="7" x="170.8406" y="272.3657">n</text><path d="M283.152,40.234 C282.227,56.885 280.756,83.364 279.836,99.925 " fill="none" style="stroke: #A80036; stroke-width: 1.0;"/><text fill="#000000" font-family="sans-serif" font-size="13" lengthAdjust="spacingAndGlyphs" textLength="7" x="274.7661" y="60.3731">1</text><text fill="#000000" font-family="sans-serif" font-size="13" lengthAdjust="spacingAndGlyphs" textLength="7" x="271.9536" y="88.3657">n</text><path d="M388.238,40.171 C377.482,74.515 351.413,157.753 340.708,191.934 " fill="none" style="stroke: #A80036; stroke-width: 1.0;"/><text fill="#000000" font-family="sans-serif" font-size="13" lengthAdjust="spacingAndGlyphs" textLength="7" x="378.6045" y="60.29">n</text><text fill="#000000" font-family="sans-serif" font-size="13" lengthAdjust="spacingAndGlyphs" textLength="11" x="329.4457" y="180.3776">m</text><path d="M333.296,224.089 C324.729,271.994 298.251,420.052 289.696,467.892 " fill="none" style="stroke: #A80036; stroke-width: 1.0;"/><text fill="#000000" font-family="sans-serif" font-size="13" lengthAdjust="spacingAndGlyphs" textLength="7" x="324.2409" y="244.484">n</text><text fill="#000000" font-family="sans-serif" font-size="13" lengthAdjust="spacingAndGlyphs" textLength="11" x="277.7672" y="456.3217">m</text><path d="M262.036,132.234 C243.536,148.885 214.114,175.364 195.713,191.925 " fill="none" style="stroke: #A80036; stroke-width: 1.0;"/><text fill="#000000" font-family="sans-serif" font-size="13" lengthAdjust="spacingAndGlyphs" textLength="7" x="248.5131" y="152.3731">n</text><text fill="#000000" font-family="sans-serif" font-size="13" lengthAdjust="spacingAndGlyphs" textLength="11" x="188.4273" y="180.3657">m</text><path d="M370.679,316.234 C371.419,332.885 372.595,359.364 373.331,375.925 " fill="none" style="stroke: #A80036; stroke-width: 1.0;"/><text fill="#000000" font-family="sans-serif" font-size="13" lengthAdjust="spacingAndGlyphs" textLength="7" x="362.7798" y="336.3731">n</text><text fill="#000000" font-family="sans-serif" font-size="13" lengthAdjust="spacingAndGlyphs" textLength="11" x="360.2875" y="364.3657">m</text><path d="M179,132.234 C179,148.885 179,175.364 179,191.925 " fill="none" style="stroke: #A80036; stroke-width: 1.0;"/><text fill="#000000" font-family="sans-serif" font-size="13" lengthAdjust="spacingAndGlyphs" textLength="7" x="170.8844" y="152.3731">1</text><text fill="#000000" font-family="sans-serif" font-size="13" lengthAdjust="spacingAndGlyphs" textLength="7" x="170.8406" y="180.3657">2</text></g></svg>